<?xml version="1.0" encoding="UTF-8"?>
<svg width="14px" height="14px" viewBox="0 0 14 14" version="1.1" xmlns="http://www.w3.org/2000/svg" xmlns:xlink="http://www.w3.org/1999/xlink">
    <title>i/Google</title>
    <defs>
        <filter id="filter-1">
            <feColorMatrix in="SourceGraphic" type="matrix" values="0 0 0 0 1.000000 0 0 0 0 1.000000 0 0 0 0 1.000000 0 0 0 1.000000 0"></feColorMatrix>
        </filter>
        <polygon id="path-2" points="5.6e-07 0.0032928 13.6728704 0.0032928 13.6728704 13.9551989 5.6e-07 13.9551989"></polygon>
        <polygon id="path-4" points="0.0296704 0.00266056 0.0796704 0.00266056 0.0796704 0.10266056 0.0296704 0.10266056"></polygon>
    </defs>
    <g id="TT-Desktop" stroke="none" stroke-width="1" fill="none" fill-rule="evenodd">
        <g id="Club-Sign-Up" transform="translate(-640.000000, -347.000000)">
            <g id="Group-7" transform="translate(559.000000, 277.000000)">
                <g id="login-w-goo" transform="translate(0.000000, 58.000000)">
                    <g id="Group-5" transform="translate(81.000000, 7.000000)">
                        <g id="Group-7" transform="translate(0.000000, 5.000000)" filter="url(#filter-1)">
                            <g transform="translate(-0.000000, 0.000000)">
                                <g id="Group-3" transform="translate(0.000000, 0.002296)">
                                    <mask id="mask-3" fill="white">
                                        <use xlink:href="#path-2"></use>
                                    </mask>
                                    <g id="Clip-2"></g>
                                    <path d="M6.97595416,5.70807888 L6.97595416,8.29690288 L10.820455,8.29690288 C10.7429734,8.94025888 10.3244126,9.90914288 9.39426936,10.5601989 C8.80519416,10.9710149 8.01457496,11.2577965 6.97595416,11.2577965 C5.13121336,11.2577965 3.56550936,10.0409221 3.00737976,8.35893968 C2.86011656,7.92488368 2.77488456,7.45978688 2.77488456,6.97924528 C2.77488456,6.49864768 2.86011656,6.03360128 2.99963496,5.59955088 L2.99963496,5.59955088 C3.56551496,3.91757408 5.13121336,2.70064368 6.97595416,2.70064368 C8.28586136,2.70064368 9.16946296,3.26646768 9.67330616,3.73931488 L11.6420646,1.81703648 C10.432935,0.69313888 8.85943576,0.00329168 6.97595416,0.00329168 C4.24755576,0.00329168 1.89123256,1.56899568 0.74408376,3.84778688 C0.27129256,4.79342528 5.6e-07,5.85534208 5.6e-07,6.97924528 C5.6e-07,8.10314288 0.27129256,9.16500928 0.74408376,10.1106533 C1.89123256,12.3894445 4.24755576,13.9551989 6.97595416,13.9551989 C8.85943576,13.9551989 10.440635,13.3350885 11.5955846,12.2654773 C12.9132366,11.0485413 13.672871,9.25804208 13.672871,7.13426448 C13.672871,6.56068448 13.6263238,6.14212928 13.5256022,5.70807888 L6.97595416,5.70807888 Z" id="Fill-1" fill="#000000" mask="url(#mask-3)"></path>
                                </g>
                                <g id="Group-6" transform="translate(13.664000, 7.131096)">
                                    <mask id="mask-5" fill="white">
                                        <use xlink:href="#path-4"></use>
                                    </mask>
                                    <g id="Clip-5"></g>
                                    <path d="M0.0560704,0.05261056 L0.0560704,0.05271056 L0.0560704,0.05261056 Z" id="Fill-4" fill="#000000" mask="url(#mask-5)"></path>
                                </g>
                            </g>
                        </g>
                    </g>
                </g>
            </g>
        </g>
    </g>
</svg>