<?xml version="1.0" encoding="UTF-8"?>
<svg width="18px" height="18px" viewBox="0 0 18 18" version="1.1" xmlns="http://www.w3.org/2000/svg" xmlns:xlink="http://www.w3.org/1999/xlink">
    <title>i/insta</title>
    <g id="TT-Desktop" stroke="none" stroke-width="1" fill="none" fill-rule="evenodd">
        <g id="Team-Profile" transform="translate(-422.000000, -933.000000)" fill="#67655B" fill-rule="nonzero">
            <g id="/i/insta" transform="translate(422.000000, 933.000000)">
                <path d="M5.15454545,2.91940385e-14 C2.32514842,2.91940385e-14 5.69978847e-13,2.3257276 5.69978847e-13,5.16274028 L5.69978847e-13,12.3955648 C5.69978847e-13,15.2294601 2.32203597,17.5583051 5.15454545,17.5583051 L12.3758893,17.5583051 C15.2052864,17.5583051 17.5304348,15.2325783 17.5304348,12.3955648 L17.5304348,5.16274028 C17.5304348,2.328845 15.2083996,2.91940385e-14 12.3758893,2.91940385e-14 L5.15454545,2.91940385e-14 Z M5.15454545,1.59620956 L12.3758893,1.59620956 C14.3461955,1.59620956 15.9367589,3.18930171 15.9367589,5.16274028 L15.9367589,12.3955648 C15.9367589,14.3690034 14.3461955,15.9620956 12.3758893,15.9620956 L5.15454545,15.9620956 C3.18423933,15.9620956 1.59367589,14.3690034 1.59367589,12.3955648 L1.59367589,5.16274028 C1.59367589,3.18930171 3.18423933,1.59620956 5.15454545,1.59620956 Z M13.4715415,3.34206376 C13.0700101,3.34206376 12.7494071,3.66317643 12.7494071,4.06534621 C12.7494071,4.467516 13.0700101,4.78862867 13.4715415,4.78862867 C13.8730729,4.78862867 14.1936759,4.467516 14.1936759,4.06534621 C14.1936759,3.66317643 13.8730729,3.34206376 13.4715415,3.34206376 Z M8.76521739,3.99052389 C6.13502984,3.99052389 3.98418972,6.14478347 3.98418972,8.77915255 C3.98418972,11.4135216 6.13502984,13.5677812 8.76521739,13.5677812 C11.3954049,13.5677812 13.5462451,11.4135216 13.5462451,8.77915255 C13.5462451,6.14478347 11.3954049,3.99052389 8.76521739,3.99052389 Z M8.76521739,5.58673344 C10.536314,5.58673344 11.9525692,7.00524018 11.9525692,8.77915255 C11.9525692,10.5530649 10.536314,11.9715717 8.76521739,11.9715717 C6.99412075,11.9715717 5.57786561,10.5530649 5.57786561,8.77915255 C5.57786561,7.00524018 6.99412075,5.58673344 8.76521739,5.58673344 Z" id="Shape"></path>
            </g>
        </g>
    </g>
</svg>