<?xml version="1.0" encoding="UTF-8"?>
<svg width="172px" height="34px" viewBox="0 0 172 34" version="1.1" xmlns="http://www.w3.org/2000/svg" xmlns:xlink="http://www.w3.org/1999/xlink">
    <title>b/leftaligned</title>
    <g id="Symbols" stroke="none" stroke-width="1" fill="none" fill-rule="evenodd">
        <g id="/g/desktopheaderprofile" transform="translate(-89.000000, -23.000000)" fill="#FFFFFF">
            <g id="Group-26" transform="translate(89.000000, 23.000000)">
                <path d="M0.180504089,10.7795038 C0.273857249,10.8017346 0.359537546,10.8102346 0.436905576,10.8416192 C1.00213978,11.07635 1.5948684,11.11035 2.19207286,11.0750423 C2.51433309,11.0560808 2.84106914,11.0148885 3.1543777,10.9364269 C3.43379777,10.8664654 3.70106914,10.7389654 3.96770112,10.6212731 C4.16080149,10.5362731 4.35645948,10.4447346 4.52845948,10.3224654 C4.80276431,10.1276192 5.07515093,9.92296538 5.31812491,9.69019615 C5.55918067,9.45873462 5.7599539,9.18477308 5.98502454,8.93500385 C6.02147063,8.89446538 6.09052639,8.86438846 6.14551524,8.86373462 C6.68773086,8.85523462 7.23058587,8.85131154 7.77280149,8.85588846 C7.84057844,8.85588846 7.92434052,8.89838846 7.97165651,8.94938846 C8.22613978,9.22465769 8.45952268,9.52150385 8.72295762,9.78761923 C9.14048922,10.2080423 9.65712862,10.4761192 10.1891138,10.7088885 C10.4116268,10.8063115 10.6494855,10.8677731 10.8924595,10.9495038 C10.9116416,8.15300385 10.9308238,5.40161923 10.9493665,2.62538846 C10.8592104,2.63911923 10.7978275,2.64108077 10.7409204,2.65742692 C9.95061561,2.88888846 9.16031078,3.12231154 8.37000595,3.35573462 C8.30990186,3.37338846 8.25427361,3.41065769 8.19353011,3.42111923 C8.06181264,3.44269615 8.03623643,3.52377308 8.03687584,3.64604231 C8.03943346,4.17435 8.02984238,4.70265769 8.03559703,5.23031154 C8.03687584,5.38658077 8.00042974,5.44477308 7.83354498,5.43954231 C7.42240743,5.42777308 7.01126989,5.44019615 6.60013234,5.44150385 C6.38017695,5.44150385 6.15958216,5.43823462 5.9191658,5.43692692 C5.92236283,4.98838846 5.92747807,4.57842692 5.92747807,4.16846538 C5.92747807,3.46427308 5.92747807,2.76008077 5.9198052,2.05654231 C5.91852639,1.93035 5.9811881,1.89961923 6.07773829,1.87085 C6.70307658,1.68515769 7.32713606,1.49423462 7.95247435,1.30723462 C8.77027361,1.06335 9.58807286,0.822080769 10.4058721,0.579503846 C10.8828684,0.438273077 11.3585859,0.291811538 11.8375004,0.159080769 C11.9366082,0.131619231 12.056177,0.131619231 12.1546454,0.159734615 C13.1501993,0.445465385 14.1431955,0.741657692 15.1374706,1.03131154 C15.7417086,1.20719615 16.3478647,1.37523462 16.952742,1.55046538 C17.3088907,1.65377308 17.6656788,1.75838846 18.0167123,1.87738846 C18.0659465,1.89438846 18.1139019,1.99900385 18.1158201,2.06438846 C18.1279688,2.53254231 18.1311658,3.00135 18.1318052,3.47081154 C18.1324446,4.08673462 18.1286082,4.70265769 18.1254112,5.31858077 C18.1254112,5.36435 18.1183777,5.40946538 18.112623,5.47681154 C17.4201472,5.47223462 16.733426,5.46700385 16.0198498,5.46177308 C16.021768,5.13942692 16.0243257,4.81185 16.0262439,4.48492692 C16.0281621,4.20311923 16.0262439,3.92131154 16.0326379,3.64015769 C16.0351955,3.54404231 16.0096193,3.49369615 15.9117903,3.46492692 C15.4463033,3.32827308 14.9840134,3.18246538 14.5204446,3.04058077 C14.1105859,2.91569615 13.7000877,2.79538846 13.2915078,2.66723462 C13.0984074,2.60708077 13.0792253,2.61492692 13.0792253,2.81173462 C13.0779465,4.73011923 13.0766677,6.64785 13.0753888,8.56558077 C13.0747494,9.27500385 13.0728312,9.98442692 13.0728312,10.69385 C13.0728312,10.7631577 13.0811435,10.8324654 13.088177,10.9429654 C13.260177,10.9037346 13.4296193,10.8952346 13.5722067,10.8272346 C14.0210691,10.6114654 14.4731286,10.3950423 14.8996119,10.1374269 C15.2749428,9.90988846 15.5645933,9.56988846 15.8350617,9.21942692 C15.9156268,9.11481154 15.9834037,8.98600385 16.0876268,8.91800385 C16.1784223,8.85915769 16.3133368,8.85654231 16.4290691,8.85458077 C16.8964743,8.84804231 17.3638796,8.85654231 17.8312848,8.84869615 C17.9655599,8.84608077 18.035255,8.89250385 18.1234929,9.00235 C18.3766974,9.31750385 18.649084,9.61892692 18.9368164,9.90138846 C19.3377234,10.2950038 19.8313442,10.5454269 20.342229,10.7566192 C20.8492773,10.9665038 21.3844595,11.0534654 21.9260357,11.0998885 C22.5321918,11.1521962 23.1095747,10.9874269 23.7387494,10.8246192 C23.73811,11.0018115 23.7368312,11.1620038 23.7355524,11.3215423 C23.731716,11.8321962 23.7221249,12.34285 23.7259613,12.8535038 C23.7266007,13.0195808 23.6831212,13.09085 23.5085636,13.13335 C22.7969056,13.3059654 22.0775747,13.2811192 21.3614409,13.2327346 C20.7623182,13.1921962 20.1932476,12.9927731 19.6203405,12.8064269 C18.8249204,12.54685 18.1484297,12.0937346 17.4968758,11.58635 C17.3792253,11.4948115 17.2750022,11.3849654 17.168861,11.2783885 C17.0934112,11.2025423 17.0345859,11.1992731 16.952742,11.2783885 C16.4687123,11.7458885 15.9226602,12.1179269 15.3324892,12.43635 C14.6604743,12.7979269 13.9468981,13.0025808 13.2103033,13.1496962 C13.1143926,13.1693115 13.0657978,13.2124654 13.0664372,13.3262346 C13.0728312,14.2357346 13.0721918,15.1452346 13.07411,16.0553885 C13.07411,16.0789269 13.0766677,16.1024654 13.0766677,16.12535 C13.0696342,16.5104654 13.0696342,16.5032731 13.4551955,16.5039269 C14.8874632,16.5058885 16.3190914,16.5150423 17.7507197,16.5176577 C18.666348,16.5196192 19.5813368,16.5130808 20.4969651,16.5150423 C21.4758944,16.5170038 22.4541844,16.5228885 23.4331138,16.5313885 C23.7253219,16.5340038 23.7234037,16.5398885 23.7221249,16.8426192 C23.7195673,17.3761577 23.7195673,17.91035 23.7170097,18.4445423 C23.7170097,18.5014269 23.7118944,18.5589654 23.7074186,18.6491962 C23.3615004,18.6472346 23.0251732,18.6433115 22.6888461,18.6426577 C21.7086379,18.6387346 20.7290691,18.6354654 19.748861,18.6335038 C18.4821993,18.6308885 17.2155375,18.6289269 15.9482364,18.6289269 C15.0799242,18.6289269 14.2122513,18.6321962 13.343939,18.6348115 C13.0721918,18.6354654 13.0702736,18.6367731 13.0702736,18.9172731 C13.0657978,21.36985 13.0619613,23.8224269 13.0574855,26.2756577 C13.0555673,27.2786577 13.0498126,28.2810038 13.0485338,29.2840038 C13.0478944,29.6599654 13.0530097,30.0352731 13.0568461,30.4105808 C13.0574855,30.4498115 13.0683554,30.4883885 13.0773071,30.5452731 C13.2275673,30.4792346 13.3682364,30.42235 13.5050691,30.3576192 C14.0658275,30.0947731 14.6272253,29.8306192 15.1860654,29.5631962 C15.9418424,29.2022731 16.6937829,28.8335038 17.4501993,28.4751962 C18.2494558,28.0959654 19.0531881,27.72785 19.8524446,27.3505808 C20.3972178,27.0929654 20.9362364,26.8255423 21.4803703,26.5672731 C21.5992996,26.5110423 21.6312699,26.4240808 21.6312699,26.3011577 C21.6325487,25.5028115 21.6383033,24.7051192 21.6402216,23.9067731 C21.6421398,23.2980423 21.6434186,22.6886577 21.6395822,22.0792731 C21.6383033,21.9373885 21.6657978,21.87135 21.8307643,21.8746192 C22.4036714,21.8876962 22.9772178,21.8863885 23.5501249,21.87985 C23.6907941,21.8778885 23.7278796,21.93085 23.7266007,22.0635808 C23.7176491,23.2189269 23.7106156,24.3749269 23.7074186,25.5309269 C23.7061398,26.2220423 23.7176491,26.9131577 23.7118944,27.6036192 C23.711255,27.6794654 23.6517903,27.7912731 23.5891286,27.8226577 C23.1287569,28.0554269 22.6594335,28.2698885 22.1945859,28.4935038 C21.6574855,28.7517731 21.1223033,29.0159269 20.585203,29.2741962 C19.8812178,29.6122346 19.1746751,29.9437346 18.4719688,30.2850423 C18.0544372,30.4864269 17.6445784,30.7054654 17.2270468,30.9075038 C16.7359836,31.14485 16.2391658,31.3704269 15.7468238,31.6045038 C15.2129204,31.85885 14.6828535,32.1210423 14.1476714,32.3714654 C13.7173517,32.5735038 13.2793591,32.7585423 12.8477606,32.9573115 C12.5766528,33.0821962 12.311939,33.2214654 12.0401918,33.3450423 C11.9890394,33.3679269 11.9103926,33.3672731 11.8598796,33.3437346 C11.4135747,33.1351577 10.9711063,32.9180808 10.5260803,32.7049269 C10.0299019,32.4675808 9.53308401,32.23285 9.03690558,31.9961577 C8.64942602,31.8117731 8.26066766,31.6286962 7.87574572,31.4397346 C7.21587955,31.1160808 6.56112862,30.7826192 5.89998364,30.4641962 C5.42490558,30.23535 4.93959703,30.0287346 4.46387955,29.80185 C4.06105428,29.6102731 3.66718067,29.4003885 3.26627361,29.2042346 C2.80270483,28.97735 2.33529963,28.7576577 1.87109145,28.5314269 C1.39153755,28.2980038 0.920935316,28.04235 0.43242974,27.8311577 C0.200325651,27.7311192 0.133188104,27.5983885 0.135675909,27.3558115 C0.149173234,26.1703885 0.147894424,24.9843115 0.15237026,23.7988885 C0.154288476,23.2248115 0.161961338,22.6513885 0.157485502,22.0773115 C0.156206691,21.9275808 0.206080297,21.88835 0.348028253,21.8909654 C0.904310781,21.9007731 1.4599539,21.8994654 2.01623643,21.9020808 C2.28158959,21.9027346 2.28542602,21.9027346 2.28542602,22.1681962 C2.28542602,22.9606577 2.28350781,23.7531192 2.28095019,24.5455808 C2.27903197,25.1261962 2.27711375,25.7081192 2.26880149,26.2887346 C2.26624387,26.4345423 2.30205056,26.5260808 2.44463792,26.5881962 C2.73300967,26.7137346 3.01306914,26.8601962 3.29760446,26.99685 C3.78355242,27.2296192 4.27013978,27.4623885 4.75736654,27.6925423 C5.03806543,27.8252731 5.32260074,27.9495038 5.60266022,28.0809269 C5.98694275,28.2620423 6.36866766,28.4477346 6.75295019,28.62885 C7.1110171,28.7975423 7.47100223,28.9616577 7.82842974,29.1310038 C8.46463792,29.4324269 9.09892788,29.7384269 9.73577546,30.03985 C10.0938424,30.2091962 10.4551063,30.3720038 10.8157309,30.5367731 C10.8297978,30.5433115 10.8489799,30.5380808 10.8847866,30.5380808 C10.8943777,30.37985 10.912281,30.2242346 10.912281,30.0686192 C10.9135599,29.1002731 10.9116416,28.1319269 10.9097234,27.1635808 C10.9084446,26.4888115 10.9020506,25.8146962 10.90269,25.1399269 C10.9046082,24.0028885 10.9110022,22.8651962 10.9154781,21.7281577 C10.9193145,20.7545808 10.9225115,19.78035 10.9289056,18.8067731 C10.9301844,18.6792731 10.8969353,18.6145423 10.754348,18.6145423 C9.75879405,18.6151962 8.76387955,18.60735 7.76896506,18.6053885 C7.15833309,18.6040808 6.54706171,18.6125808 5.93579033,18.6106192 C4.88205056,18.60735 3.82831078,18.5981962 2.7739316,18.5923115 C1.9753145,18.5890423 1.1766974,18.5844654 0.377440892,18.5896962 C0.214392565,18.59035 0.153009665,18.53935 0.153649071,18.3686962 C0.156846097,17.8175038 0.150452045,17.2663115 0.142779182,16.7151192 C0.140860967,16.5856577 0.173470632,16.5241962 0.316057993,16.52485 C1.29434796,16.5287731 2.27263792,16.5281192 3.25028848,16.5261577 C3.9536342,16.5235423 4.65634052,16.5156962 5.35968625,16.5137346 C6.48376059,16.5111192 7.60847435,16.5117731 8.7331881,16.5098115 C9.40776059,16.5085038 10.0816937,16.5032731 10.7562662,16.5039269 C10.8751955,16.5039269 10.9167569,16.4581577 10.9161175,16.3371962 C10.9103628,15.53885 10.9097234,14.7411577 10.909084,13.9434654 C10.909084,13.7446962 10.909084,13.5459269 10.9199539,13.3471577 C10.9269874,13.21835 10.8803108,13.1581962 10.754348,13.1353115 C10.0407717,13.0065038 9.37515093,12.7371192 8.72295762,12.4186962 C8.10145576,12.1153115 7.57522528,11.6824654 7.0624223,11.2260808 C6.99080892,11.1620038 6.94413234,11.1672346 6.87635539,11.2326192 C6.10075688,11.9786577 5.19599851,12.50435 4.1870171,12.8378115 C3.3762513,13.1052346 2.54374572,13.2392731 1.68886097,13.1745423 C1.27452639,13.1431577 0.860191822,13.1071962 0.447775465,13.0581577 C0.170273606,13.0248115 0.156846097,12.9960423 0.158124907,12.7161962 C0.160682528,12.1231577 0.163240149,11.5307731 0.166437175,10.9377346 C0.16707658,10.8919654 0.174749442,10.8461962 0.180504089,10.7795038" id="Fill-1"></path>
                <path d="M0.180504089,10.7795038 C0.273857249,10.8017346 0.359537546,10.8102346 0.436905576,10.8416192 C1.00213978,11.07635 1.5948684,11.11035 2.19207286,11.0750423 C2.51433309,11.0560808 2.84106914,11.0148885 3.1543777,10.9364269 C3.43379777,10.8664654 3.70106914,10.7389654 3.96770112,10.6212731 C4.16080149,10.5362731 4.35645948,10.4447346 4.52845948,10.3224654 C4.80276431,10.1276192 5.07515093,9.92296538 5.31812491,9.69019615 C5.55918067,9.45873462 5.7599539,9.18477308 5.98502454,8.93500385 C6.02147063,8.89446538 6.09052639,8.86438846 6.14551524,8.86373462 C6.68773086,8.85523462 7.23058587,8.85131154 7.77280149,8.85588846 C7.84057844,8.85588846 7.92434052,8.89838846 7.97165651,8.94938846 C8.22613978,9.22465769 8.45952268,9.52150385 8.72295762,9.78761923 C9.14048922,10.2080423 9.65712862,10.4761192 10.1891138,10.7088885 C10.4116268,10.8063115 10.6494855,10.8677731 10.8924595,10.9495038 C10.9116416,8.15300385 10.9308238,5.40161923 10.9493665,2.62538846 C10.8592104,2.63911923 10.7978275,2.64108077 10.7409204,2.65742692 C9.95061561,2.88888846 9.16031078,3.12231154 8.37000595,3.35573462 C8.30990186,3.37338846 8.25427361,3.41065769 8.19353011,3.42111923 C8.06181264,3.44269615 8.03623643,3.52377308 8.03687584,3.64604231 C8.03943346,4.17435 8.02984238,4.70265769 8.03559703,5.23031154 C8.03687584,5.38658077 8.00042974,5.44477308 7.83354498,5.43954231 C7.42240743,5.42777308 7.01126989,5.44019615 6.60013234,5.44150385 C6.38017695,5.44150385 6.15958216,5.43823462 5.9191658,5.43692692 C5.92236283,4.98838846 5.92747807,4.57842692 5.92747807,4.16846538 C5.92747807,3.46427308 5.92747807,2.76008077 5.9198052,2.05654231 C5.91852639,1.93035 5.9811881,1.89961923 6.07773829,1.87085 C6.70307658,1.68515769 7.32713606,1.49423462 7.95247435,1.30723462 C8.77027361,1.06335 9.58807286,0.822080769 10.4058721,0.579503846 C10.8828684,0.438273077 11.3585859,0.291811538 11.8375004,0.159080769 C11.9366082,0.131619231 12.056177,0.131619231 12.1546454,0.159734615 C13.1501993,0.445465385 14.1431955,0.741657692 15.1374706,1.03131154 C15.7417086,1.20719615 16.3478647,1.37523462 16.952742,1.55046538 C17.3088907,1.65377308 17.6656788,1.75838846 18.0167123,1.87738846 C18.0659465,1.89438846 18.1139019,1.99900385 18.1158201,2.06438846 C18.1279688,2.53254231 18.1311658,3.00135 18.1318052,3.47081154 C18.1324446,4.08673462 18.1286082,4.70265769 18.1254112,5.31858077 C18.1254112,5.36435 18.1183777,5.40946538 18.112623,5.47681154 C17.4201472,5.47223462 16.733426,5.46700385 16.0198498,5.46177308 C16.021768,5.13942692 16.0243257,4.81185 16.0262439,4.48492692 C16.0281621,4.20311923 16.0262439,3.92131154 16.0326379,3.64015769 C16.0351955,3.54404231 16.0096193,3.49369615 15.9117903,3.46492692 C15.4463033,3.32827308 14.9840134,3.18246538 14.5204446,3.04058077 C14.1105859,2.91569615 13.7000877,2.79538846 13.2915078,2.66723462 C13.0984074,2.60708077 13.0792253,2.61492692 13.0792253,2.81173462 C13.0779465,4.73011923 13.0766677,6.64785 13.0753888,8.56558077 C13.0747494,9.27500385 13.0728312,9.98442692 13.0728312,10.69385 C13.0728312,10.7631577 13.0811435,10.8324654 13.088177,10.9429654 C13.260177,10.9037346 13.4296193,10.8952346 13.5722067,10.8272346 C14.0210691,10.6114654 14.4731286,10.3950423 14.8996119,10.1374269 C15.2749428,9.90988846 15.5645933,9.56988846 15.8350617,9.21942692 C15.9156268,9.11481154 15.9834037,8.98600385 16.0876268,8.91800385 C16.1784223,8.85915769 16.3133368,8.85654231 16.4290691,8.85458077 C16.8964743,8.84804231 17.3638796,8.85654231 17.8312848,8.84869615 C17.9655599,8.84608077 18.035255,8.89250385 18.1234929,9.00235 C18.3766974,9.31750385 18.649084,9.61892692 18.9368164,9.90138846 C19.3377234,10.2950038 19.8313442,10.5454269 20.342229,10.7566192 C20.8492773,10.9665038 21.3844595,11.0534654 21.9260357,11.0998885 C22.5321918,11.1521962 23.1095747,10.9874269 23.7387494,10.8246192 C23.73811,11.0018115 23.7368312,11.1620038 23.7355524,11.3215423 C23.731716,11.8321962 23.7221249,12.34285 23.7259613,12.8535038 C23.7266007,13.0195808 23.6831212,13.09085 23.5085636,13.13335 C22.7969056,13.3059654 22.0775747,13.2811192 21.3614409,13.2327346 C20.7623182,13.1921962 20.1932476,12.9927731 19.6203405,12.8064269 C18.8249204,12.54685 18.1484297,12.0937346 17.4968758,11.58635 C17.3792253,11.4948115 17.2750022,11.3849654 17.168861,11.2783885 C17.0934112,11.2025423 17.0345859,11.1992731 16.952742,11.2783885 C16.4687123,11.7458885 15.9226602,12.1179269 15.3324892,12.43635 C14.6604743,12.7979269 13.9468981,13.0025808 13.2103033,13.1496962 C13.1143926,13.1693115 13.0657978,13.2124654 13.0664372,13.3262346 C13.0728312,14.2357346 13.0721918,15.1452346 13.07411,16.0553885 C13.07411,16.0789269 13.0766677,16.1024654 13.0766677,16.12535 C13.0696342,16.5104654 13.0696342,16.5032731 13.4551955,16.5039269 C14.8874632,16.5058885 16.3190914,16.5150423 17.7507197,16.5176577 C18.666348,16.5196192 19.5813368,16.5130808 20.4969651,16.5150423 C21.4758944,16.5170038 22.4541844,16.5228885 23.4331138,16.5313885 C23.7253219,16.5340038 23.7234037,16.5398885 23.7221249,16.8426192 C23.7195673,17.3761577 23.7195673,17.91035 23.7170097,18.4445423 C23.7170097,18.5014269 23.7118944,18.5589654 23.7074186,18.6491962 C23.3615004,18.6472346 23.0251732,18.6433115 22.6888461,18.6426577 C21.7086379,18.6387346 20.7290691,18.6354654 19.748861,18.6335038 C18.4821993,18.6308885 17.2155375,18.6289269 15.9482364,18.6289269 C15.0799242,18.6289269 14.2122513,18.6321962 13.343939,18.6348115 C13.0721918,18.6354654 13.0702736,18.6367731 13.0702736,18.9172731 C13.0657978,21.36985 13.0619613,23.8224269 13.0574855,26.2756577 C13.0555673,27.2786577 13.0498126,28.2810038 13.0485338,29.2840038 C13.0478944,29.6599654 13.0530097,30.0352731 13.0568461,30.4105808 C13.0574855,30.4498115 13.0683554,30.4883885 13.0773071,30.5452731 C13.2275673,30.4792346 13.3682364,30.42235 13.5050691,30.3576192 C14.0658275,30.0947731 14.6272253,29.8306192 15.1860654,29.5631962 C15.9418424,29.2022731 16.6937829,28.8335038 17.4501993,28.4751962 C18.2494558,28.0959654 19.0531881,27.72785 19.8524446,27.3505808 C20.3972178,27.0929654 20.9362364,26.8255423 21.4803703,26.5672731 C21.5992996,26.5110423 21.6312699,26.4240808 21.6312699,26.3011577 C21.6325487,25.5028115 21.6383033,24.7051192 21.6402216,23.9067731 C21.6421398,23.2980423 21.6434186,22.6886577 21.6395822,22.0792731 C21.6383033,21.9373885 21.6657978,21.87135 21.8307643,21.8746192 C22.4036714,21.8876962 22.9772178,21.8863885 23.5501249,21.87985 C23.6907941,21.8778885 23.7278796,21.93085 23.7266007,22.0635808 C23.7176491,23.2189269 23.7106156,24.3749269 23.7074186,25.5309269 C23.7061398,26.2220423 23.7176491,26.9131577 23.7118944,27.6036192 C23.711255,27.6794654 23.6517903,27.7912731 23.5891286,27.8226577 C23.1287569,28.0554269 22.6594335,28.2698885 22.1945859,28.4935038 C21.6574855,28.7517731 21.1223033,29.0159269 20.585203,29.2741962 C19.8812178,29.6122346 19.1746751,29.9437346 18.4719688,30.2850423 C18.0544372,30.4864269 17.6445784,30.7054654 17.2270468,30.9075038 C16.7359836,31.14485 16.2391658,31.3704269 15.7468238,31.6045038 C15.2129204,31.85885 14.6828535,32.1210423 14.1476714,32.3714654 C13.7173517,32.5735038 13.2793591,32.7585423 12.8477606,32.9573115 C12.5766528,33.0821962 12.311939,33.2214654 12.0401918,33.3450423 C11.9890394,33.3679269 11.9103926,33.3672731 11.8598796,33.3437346 C11.4135747,33.1351577 10.9711063,32.9180808 10.5260803,32.7049269 C10.0299019,32.4675808 9.53308401,32.23285 9.03690558,31.9961577 C8.64942602,31.8117731 8.26066766,31.6286962 7.87574572,31.4397346 C7.21587955,31.1160808 6.56112862,30.7826192 5.89998364,30.4641962 C5.42490558,30.23535 4.93959703,30.0287346 4.46387955,29.80185 C4.06105428,29.6102731 3.66718067,29.4003885 3.26627361,29.2042346 C2.80270483,28.97735 2.33529963,28.7576577 1.87109145,28.5314269 C1.39153755,28.2980038 0.920935316,28.04235 0.43242974,27.8311577 C0.200325651,27.7311192 0.133188104,27.5983885 0.135675909,27.3558115 C0.149173234,26.1703885 0.147894424,24.9843115 0.15237026,23.7988885 C0.154288476,23.2248115 0.161961338,22.6513885 0.157485502,22.0773115 C0.156206691,21.9275808 0.206080297,21.88835 0.348028253,21.8909654 C0.904310781,21.9007731 1.4599539,21.8994654 2.01623643,21.9020808 C2.28158959,21.9027346 2.28542602,21.9027346 2.28542602,22.1681962 C2.28542602,22.9606577 2.28350781,23.7531192 2.28095019,24.5455808 C2.27903197,25.1261962 2.27711375,25.7081192 2.26880149,26.2887346 C2.26624387,26.4345423 2.30205056,26.5260808 2.44463792,26.5881962 C2.73300967,26.7137346 3.01306914,26.8601962 3.29760446,26.99685 C3.78355242,27.2296192 4.27013978,27.4623885 4.75736654,27.6925423 C5.03806543,27.8252731 5.32260074,27.9495038 5.60266022,28.0809269 C5.98694275,28.2620423 6.36866766,28.4477346 6.75295019,28.62885 C7.1110171,28.7975423 7.47100223,28.9616577 7.82842974,29.1310038 C8.46463792,29.4324269 9.09892788,29.7384269 9.73577546,30.03985 C10.0938424,30.2091962 10.4551063,30.3720038 10.8157309,30.5367731 C10.8297978,30.5433115 10.8489799,30.5380808 10.8847866,30.5380808 C10.8943777,30.37985 10.912281,30.2242346 10.912281,30.0686192 C10.9135599,29.1002731 10.9116416,28.1319269 10.9097234,27.1635808 C10.9084446,26.4888115 10.9020506,25.8146962 10.90269,25.1399269 C10.9046082,24.0028885 10.9110022,22.8651962 10.9154781,21.7281577 C10.9193145,20.7545808 10.9225115,19.78035 10.9289056,18.8067731 C10.9301844,18.6792731 10.8969353,18.6145423 10.754348,18.6145423 C9.75879405,18.6151962 8.76387955,18.60735 7.76896506,18.6053885 C7.15833309,18.6040808 6.54706171,18.6125808 5.93579033,18.6106192 C4.88205056,18.60735 3.82831078,18.5981962 2.7739316,18.5923115 C1.9753145,18.5890423 1.1766974,18.5844654 0.377440892,18.5896962 C0.214392565,18.59035 0.153009665,18.53935 0.153649071,18.3686962 C0.156846097,17.8175038 0.150452045,17.2663115 0.142779182,16.7151192 C0.140860967,16.5856577 0.173470632,16.5241962 0.316057993,16.52485 C1.29434796,16.5287731 2.27263792,16.5281192 3.25028848,16.5261577 C3.9536342,16.5235423 4.65634052,16.5156962 5.35968625,16.5137346 C6.48376059,16.5111192 7.60847435,16.5117731 8.7331881,16.5098115 C9.40776059,16.5085038 10.0816937,16.5032731 10.7562662,16.5039269 C10.8751955,16.5039269 10.9167569,16.4581577 10.9161175,16.3371962 C10.9103628,15.53885 10.9097234,14.7411577 10.909084,13.9434654 C10.909084,13.7446962 10.909084,13.5459269 10.9199539,13.3471577 C10.9269874,13.21835 10.8803108,13.1581962 10.754348,13.1353115 C10.0407717,13.0065038 9.37515093,12.7371192 8.72295762,12.4186962 C8.10145576,12.1153115 7.57522528,11.6824654 7.0624223,11.2260808 C6.99080892,11.1620038 6.94413234,11.1672346 6.87635539,11.2326192 C6.10075688,11.9786577 5.19599851,12.50435 4.1870171,12.8378115 C3.3762513,13.1052346 2.54374572,13.2392731 1.68886097,13.1745423 C1.27452639,13.1431577 0.860191822,13.1071962 0.447775465,13.0581577 C0.170273606,13.0248115 0.156846097,12.9960423 0.158124907,12.7161962 C0.160682528,12.1231577 0.163240149,11.5307731 0.166437175,10.9377346 C0.16707658,10.8919654 0.174749442,10.8461962 0.180504089,10.7795038 Z" id="Stroke-3"></path>
                <path d="M146.818816,14.1556385 C146.823932,13.3945615 146.823292,12.6439462 146.846311,11.8946385 C146.848229,11.8410231 147.025344,11.7494846 147.120616,11.7488308 C148.026653,11.7436 148.93269,11.7547154 149.838727,11.7599462 C151.089404,11.7671385 152.342638,11.7357538 153.591396,11.7959077 C154.191158,11.8246769 154.792199,11.9927154 155.375976,12.1587923 C155.811411,12.2830231 156.260274,12.4445231 156.631129,12.6988692 C157.138816,13.0467154 157.610697,13.4651769 158.039099,13.9117538 C158.766103,14.6695615 159.151664,15.6287538 159.375456,16.6487538 C159.579426,17.5772154 159.508452,18.4867154 159.23159,19.4112538 C158.935545,20.4005231 158.416987,21.2341769 157.74817,21.9664846 C157.329999,22.4248308 156.793538,22.7563308 156.223188,23.0276769 C155.021746,23.5991385 153.767233,23.8031385 152.451337,23.7632538 C151.237746,23.7259846 150.022876,23.7449462 148.808645,23.7377538 C148.763248,23.7377538 148.71721,23.7272923 148.612348,23.7135615 C148.614906,23.2911769 148.618103,22.8746769 148.62066,22.4588308 C148.626415,21.2969462 148.63217,20.1357154 148.636006,18.9744846 C148.640482,17.7230231 148.643679,16.4709077 148.647515,15.2194462 C148.648155,14.9755615 148.632809,14.7310231 148.650712,14.4891 C148.669894,14.2373692 148.563753,14.1608692 148.334207,14.1634846 C147.839946,14.1693692 147.345047,14.1595615 146.818816,14.1556385 M151.258207,14.1340615 C151.242861,14.2661385 151.230712,14.3230231 151.230712,14.3799077 C151.226236,15.2403692 151.2224,16.1001769 151.221761,16.9606385 C151.220482,17.7491769 151.221162,18.5377154 151.224958,19.3269077 C151.228155,19.9127538 151.239025,20.4992538 151.2435,21.0851 C151.244779,21.2230615 151.253731,21.3459846 151.435322,21.3387923 C152.301716,21.3047923 153.171307,21.3113308 154.031946,21.2256769 C154.709077,21.1563692 155.298608,20.8183308 155.774326,20.3083308 C156.462326,19.5707923 156.760928,18.6815615 156.720006,17.6700615 C156.655426,16.0629077 155.625344,14.5675615 153.971203,14.2582923 C153.610578,14.1909462 153.241002,14.1641385 152.874623,14.1497538 C152.343917,14.1294846 151.812571,14.1379846 151.258207,14.1340615" id="Fill-5"></path>
                <path d="M165.350314,14.1196115 C165.34392,14.9310346 165.340083,15.6437269 165.334329,16.3557654 C165.33305,16.5002654 165.377808,16.5610731 165.534462,16.5604192 C167.069035,16.5538808 168.603607,16.5623808 170.136901,16.5545346 C170.90099,16.5506115 170.897793,16.5394962 170.895236,17.3175731 C170.892678,17.7451885 170.882448,18.1760731 170.913778,18.6023808 C170.934879,18.8802654 170.83641,18.9279962 170.592158,18.9273423 C168.879191,18.9214577 167.164946,18.9299577 165.450061,18.9345346 C165.433436,18.9351885 165.416172,18.9469577 165.352232,18.97115 C165.347756,19.4857269 165.34392,20.0173038 165.340723,20.5488808 C165.340083,20.7345731 165.35479,20.9209192 165.340083,21.1053038 C165.326016,21.3093038 165.402106,21.3831885 165.6016,21.3825346 C166.287042,21.3812269 166.972485,21.3975731 167.657927,21.3962654 C168.513451,21.3962654 169.368975,21.3838423 170.2245,21.3779577 C170.624128,21.3753423 171.025035,21.38515 171.424663,21.3720731 C171.647176,21.3648808 171.727102,21.4407269 171.721987,21.6761115 C171.70728,22.2913808 171.709838,22.9073038 171.721987,23.5225731 C171.726462,23.7474962 171.640782,23.8011115 171.434894,23.798586 C170.185496,23.7828038 168.935459,23.7729962 167.686061,23.7716885 C166.111206,23.7710346 164.53699,23.7801885 162.962135,23.7847654 C162.905228,23.7854192 162.848321,23.7841115 162.715964,23.7834577 C162.719161,23.3578038 162.722998,22.9419577 162.724277,22.5254577 C162.729392,21.0614962 162.737065,19.5968808 162.738343,18.1342269 C162.740262,16.1223423 162.737065,14.1098038 162.73131,12.0979192 C162.730671,11.8828038 162.788857,11.78015 163.024797,11.7833436 C163.92508,11.7958423 164.824723,11.7906115 165.723726,11.7912654 C167.000619,11.7932269 168.276871,11.7932269 169.553124,11.7951885 C170.145853,11.7964962 170.739221,11.8128423 171.33131,11.7997654 C171.576202,11.7945346 171.640143,11.8854192 171.636306,12.1221115 C171.627994,12.6968423 171.642061,13.2715731 171.651652,13.8469577 C171.655488,14.0679577 171.602418,14.1719192 171.344738,14.1673423 C170.074239,14.14315 168.803102,14.1438038 167.531964,14.1353038 C166.813273,14.1300731 166.094581,14.1248423 165.350314,14.1196115" id="Fill-7"></path>
                <path d="M135.094683,15.4276308 C134.28008,15.4217462 133.505121,15.4165154 132.67837,15.4112846 C132.680928,15.0850154 132.671976,14.7567846 132.688601,14.4305154 C132.698831,14.2297846 132.675813,14.1225538 132.436675,14.1277846 C131.817731,14.1395538 131.198787,14.1317077 130.580482,14.1192846 C130.407203,14.1153615 130.370117,14.1872846 130.370117,14.3435538 C130.375872,16.7104769 130.377151,19.0760923 130.379709,21.4423615 C130.380348,22.1073231 130.380987,22.7709769 130.380348,23.4352846 C130.379709,23.5019769 130.36692,23.5680154 130.354132,23.6896308 C129.524184,23.6837462 128.705106,23.6824385 127.887307,23.6608615 C127.825924,23.6595538 127.717865,23.5052462 127.718504,23.4222077 C127.727456,21.5960154 127.75495,19.7698231 127.763902,17.9429769 C127.769657,16.7320538 127.75559,15.5224385 127.738326,14.3115154 C127.737047,14.2448231 127.621314,14.1251692 127.556095,14.1232077 C126.906459,14.1049 126.256824,14.0983615 125.607188,14.1094769 C125.545805,14.1101308 125.439025,14.2454769 125.435188,14.3245923 C125.418564,14.5854769 125.43263,14.8502846 125.448616,15.1124769 C125.462683,15.3262846 125.383396,15.4139 125.171114,15.4106308 C124.534906,15.4008231 123.898058,15.3910154 123.26185,15.4027846 C123.039337,15.4067077 122.986906,15.3190923 122.989375,15.1124769 C123.000972,14.0656692 123.008645,13.0182077 123.00353,11.9714 C123.002891,11.7281692 123.082177,11.6562462 123.319396,11.6587932 C125.211396,11.6791308 127.103396,11.6895923 128.995396,11.6954769 C130.001181,11.6980923 131.007604,11.6810923 132.014028,11.6830538 C132.913671,11.6856692 133.814593,11.7046308 134.714876,11.7144385 C134.761552,11.7144385 134.810787,11.7124769 134.855545,11.7020154 C135.062712,11.6536308 135.127292,11.7490923 135.124807,11.9504769 C135.117062,12.5853615 135.117701,13.2209 135.117062,13.8577462 C135.117062,14.2677077 135.122816,14.6783231 135.121538,15.0889385 C135.121538,15.1948615 135.106192,15.3001308 135.094683,15.4276308" id="Fill-10"></path>
                <path d="M142.525274,23.7321962 C141.679341,23.7263115 140.892233,23.7151962 140.105765,23.7184654 C139.89604,23.7197731 139.878137,23.6125423 139.880055,23.4451577 C139.889007,22.4964269 139.898598,21.5476962 139.897319,20.5996192 C139.893483,18.3235808 139.883891,16.0462346 139.875579,13.7695423 C139.8743,13.1836962 139.871103,12.59785 139.861512,12.0126577 C139.858315,11.8099654 139.912665,11.7177731 140.139014,11.72235 C140.843639,11.73935 141.550181,11.7380423 142.254806,11.73085 C142.481155,11.7275808 142.547014,11.8125808 142.545096,12.0401192 C142.531029,13.5165038 142.523996,14.9928885 142.522717,16.4705808 C142.521438,18.7459654 142.526553,21.0220038 142.528471,23.2986962 C142.529111,23.4229269 142.526553,23.5478115 142.525274,23.7321962" id="Fill-12"></path>
                <path d="M74.1357725,16.1612462 C73.8301368,16.6294 73.5232223,17.0962462 73.2188654,17.5650538 C72.503371,18.6667846 71.785319,19.7678615 71.0774974,20.8754769 C70.955371,21.0664 70.8850364,21.0494 70.7744193,20.8754769 C70.0518914,19.7404 69.3312818,18.6033615 68.5972446,17.4761308 C68.3197428,17.0491692 68.0083524,16.6450923 67.6662706,16.1658231 C67.657319,17.4780923 67.6490067,18.7210538 67.6406944,19.9640154 C67.6317428,21.2037077 67.6234305,22.4434 67.6151182,23.7157846 C67.4744491,23.7269 67.336977,23.7471692 67.1988654,23.7471692 C66.5792818,23.7478231 65.9596981,23.7321308 65.3401145,23.7458615 C65.1195197,23.7504385 65.0581368,23.6726308 65.0593961,23.4634 C65.0690067,21.6274 65.0766796,19.7914 65.0760401,17.9554 C65.0760401,16.0389769 65.0651703,14.1232077 65.0619732,12.2074385 C65.0606944,11.7412462 65.0658097,11.7556308 65.5236238,11.7667462 C66.2013933,11.7830923 66.8798022,11.7804769 67.5575717,11.7752462 C67.7909546,11.7732846 67.9239509,11.8602462 68.0531108,12.0740538 C68.9521145,13.5687462 69.8709398,15.0510154 70.7852892,16.5365538 C70.8300476,16.6091308 70.8907911,16.6705923 70.979029,16.7804385 C71.1682929,16.4855538 71.3441294,16.2240154 71.5078171,15.9552846 C72.3141071,14.6305923 73.114003,13.3019769 73.9273264,11.9812077 C73.9797576,11.8962077 74.1185086,11.8190538 74.2182558,11.8177462 C75.0117576,11.8099 75.8058989,11.8282077 76.5994007,11.8223231 C76.8545234,11.8203615 76.8666721,11.9589769 76.8660539,12.1577462 C76.8577204,13.7420154 76.8513264,15.3262846 76.8513264,16.9105538 C76.8519658,19.0499385 76.8589993,21.1899769 76.8634751,23.3293615 C76.8647539,23.7667846 76.8653933,23.7648231 76.4376312,23.7609 C75.7879955,23.7550154 75.1389993,23.7439 74.4893636,23.7530538 C74.2540625,23.7563231 74.2061071,23.6647846 74.2067465,23.4411692 C74.2144193,21.0664 74.2118617,18.6922846 74.2112223,16.3181692 C74.2105829,16.2724 74.2022706,16.2266308 74.1984342,16.1808615 C74.1773338,16.1749769 74.1568729,16.1677846 74.1357725,16.1612462" id="Fill-14"></path>
                <path d="M91.0207375,23.7679615 C90.4196967,23.7633846 89.8480684,23.7568462 89.2770796,23.7561923 C87.0346855,23.7542308 84.7922914,23.7568462 82.5486186,23.7509615 C82.0556372,23.7496538 82.06331,23.7365769 82.06331,23.2259231 C82.0658677,20.468 82.0613918,17.7107308 82.0639494,14.9541154 C82.0645888,13.9373846 82.077377,12.9219615 82.0844104,11.8450769 C82.5294364,11.8483462 82.9629532,11.8516154 83.3964699,11.8542308 C85.5365591,11.8646923 87.6766483,11.8758077 89.8154587,11.8869231 C90.1108639,11.8895385 90.4056297,11.9006538 90.7003955,11.9006538 C90.8628045,11.9019615 90.9459271,11.9608077 90.9440089,12.1412692 C90.9401725,12.6983462 90.9420907,13.2554231 90.9497636,13.8131538 C90.9523212,14.0465769 90.8647227,14.1315769 90.6249457,14.1289615 C89.1242617,14.1158846 87.6242171,14.1185 86.1228937,14.1145769 C85.7520387,14.1139231 85.3805442,14.1132692 85.0090498,14.1067308 C84.8044401,14.1028077 84.6957413,14.1564231 84.7002171,14.4042308 C84.714284,15.0397692 84.7053323,15.6759615 84.6931836,16.3121538 C84.6893472,16.524 84.7564848,16.609 84.9706855,16.6096538 C86.3940015,16.6135769 87.8166781,16.626 89.2399941,16.6364615 C89.4784922,16.6384231 89.7169903,16.6449615 89.9548491,16.6364615 C90.1338825,16.6292692 90.2170052,16.6881154 90.2176446,16.8849231 C90.2195628,17.4609615 90.2272357,18.0363462 90.2470572,18.6117308 C90.2560089,18.8601923 90.1083063,18.8817692 89.9356669,18.8811154 C89.0289903,18.8778462 88.1210349,18.8647692 87.2143584,18.8667308 C86.4624178,18.8680385 85.7104773,18.8935385 84.9591762,18.8922308 C84.7667152,18.8915769 84.6944625,18.9687308 84.6957413,19.1452692 C84.7002171,19.8298462 84.7085294,20.5137692 84.7123658,21.1976923 C84.7136446,21.3866538 84.7961279,21.4455 84.9789978,21.4455 C85.692574,21.4448462 86.4067896,21.4611923 87.1203658,21.4677308 C88.3582543,21.4814615 89.5955033,21.4906154 90.8327524,21.5154615 C90.9018082,21.5167692 91.024574,21.6481923 91.0264922,21.7201154 C91.0367227,22.3850769 91.0264922,23.0487308 91.0207375,23.7679615" id="Fill-16"></path>
                <path d="M45.142455,14.1345846 C44.7869457,14.1319692 44.4403881,14.1267385 44.0931911,14.1280462 C43.7798825,14.1287 43.4659346,14.1555077 43.1539048,14.1358923 C42.8904699,14.1195462 42.8207747,14.2248154 42.8386781,14.4752385 C42.8565814,14.7276231 42.8501874,14.9839308 42.8316446,15.2376231 C42.8265294,15.3088923 42.7421279,15.4337769 42.6935331,15.4344308 C41.9409532,15.4416231 41.1877338,15.4324692 40.3814439,15.4272385 C40.3859197,14.7675077 40.3903955,14.1358923 40.394232,13.5036231 C40.397429,12.9857769 40.4063807,12.4672769 40.3980684,11.9494308 C40.3955108,11.7591615 40.4575331,11.6885462 40.6442394,11.6891955 C42.6532506,11.6983538 44.6616223,11.7022769 46.6699941,11.7088154 C48.5338602,11.7140462 50.3977264,11.7212385 52.2609532,11.7271231 C52.4003435,11.7277769 52.5058454,11.7578538 52.5052088,11.9350462 C52.4981725,13.0701231 52.4949755,14.2045462 52.4885814,15.3389692 C52.4885814,15.3657769 52.4713175,15.3925846 52.4540535,15.4416231 C51.678455,15.4357385 50.9002989,15.4305077 50.0518082,15.4252769 C50.0537264,15.1016231 50.0422171,14.7818923 50.0626781,14.4654308 C50.076745,14.2496615 50.0441353,14.1398154 49.7960461,14.1450462 C49.2033175,14.1568154 48.6099494,14.1528923 48.0178602,14.1365462 C47.7947078,14.1300077 47.7473918,14.2123923 47.7486706,14.4255462 C47.7627375,16.4583538 47.7672134,18.4918154 47.772968,20.5252769 C47.7755257,21.4740077 47.7659346,22.4207769 47.7787227,23.3682 C47.7819197,23.6179692 47.6700238,23.6683154 47.4679717,23.6676615 C46.8125814,23.6663538 46.1565517,23.6611231 45.5011613,23.6761615 C45.2415628,23.6827 45.1699494,23.6147 45.1744253,23.3283154 C45.1948862,21.8807 45.1852952,20.4337385 45.1814587,18.9861231 C45.1776223,17.4522 45.1673918,15.9182769 45.1590796,14.3837 C45.1590796,14.3170077 45.1507673,14.2496615 45.142455,14.1345846" id="Fill-18"></path>
                <path d="M57.2493368,18.6763962 C57.2595673,17.1516269 57.271716,15.6262038 57.2800283,14.1014346 C57.2838647,13.39005 57.2851435,12.6786654 57.2761918,11.9672808 C57.2742736,11.8031654 57.3139167,11.7377808 57.4827197,11.7396996 C58.2186751,11.74955 58.9546305,11.7554346 59.6905859,11.7488962 C59.9009502,11.7469346 59.8907197,11.8731269 59.8913591,12.0156654 C59.8964743,13.5495885 59.905426,15.0835115 59.908623,16.6180885 C59.9143777,18.8457423 59.9162959,21.07405 59.9194929,23.3023577 C59.9201323,23.7018577 59.9188535,23.70055 59.5249799,23.7012038 C58.8504074,23.7012038 58.1758349,23.6998962 57.500623,23.7077965 C57.3145561,23.7103577 57.2755524,23.6181654 57.2768312,23.4547038 C57.2825859,22.3791269 57.2832253,21.30355 57.2870617,20.2279731 C57.2889799,19.7107808 57.2940952,19.1935885 57.2972922,18.67705 C57.2813071,18.6763962 57.2653219,18.6763962 57.2493368,18.6763962" id="Fill-20"></path>
                <path d="M108.764807,22.7552846 C107.918235,22.7494 107.131127,22.7376308 106.344659,22.7415538 C106.134934,22.7422077 106.11703,22.6349769 106.118949,22.4675923 C106.12854,21.5188615 106.137491,20.5707846 106.136213,19.6227077 C106.132376,17.3460154 106.122785,17.0262846 106.114473,14.7495923 C106.113194,14.1637462 106.109997,13.5779 106.101045,12.9927077 C106.097848,12.7900154 106.152198,12.6971692 106.377908,12.7024 C107.083172,12.7194 107.789075,12.7180923 108.494339,12.7102462 C108.720049,12.7076308 108.785908,12.7919769 108.78399,13.0201692 C108.769923,14.4965538 108.763529,14.0159769 108.76225,15.4930154 C108.760332,17.7690538 108.765447,20.0444385 108.767365,22.3217846 C108.767365,22.4460154 108.766086,22.5702462 108.764807,22.7552846" id="Fill-22"></path>
                <path d="M102.526898,19.0806038 C102.533292,18.2155654 102.544162,17.4106808 102.540326,16.6057962 C102.539686,16.3919885 102.644549,16.3736808 102.808236,16.3756423 C103.736013,16.3847962 104.663151,16.3946038 105.590288,16.3932962 C107.816697,16.3893731 108.130006,16.3795654 110.355775,16.3710654 C110.929322,16.3697577 111.50159,16.3664885 112.074497,16.3566808 C112.272073,16.3534115 112.363508,16.4089885 112.357753,16.64045 C112.341768,17.3609885 112.343047,18.0834885 112.35008,18.8040269 C112.352638,19.0354885 112.270155,19.1028346 112.047642,19.1008731 C110.603225,19.0864885 111.073188,19.0792962 109.628772,19.0779885 C107.403002,19.0766808 105.177872,19.0812577 102.950824,19.0832192 C102.829976,19.0832192 102.70785,19.0819115 102.526898,19.0806038" id="Fill-24"></path>
            </g>
        </g>
    </g>
</svg>