<?xml version="1.0" encoding="UTF-8"?>
<svg width="137px" height="43px" viewBox="0 0 137 43" version="1.1" xmlns="http://www.w3.org/2000/svg" xmlns:xlink="http://www.w3.org/1999/xlink">
    <title>b/TTLogoWhite</title>
    <g id="Symbols" stroke="none" stroke-width="1" fill="none" fill-rule="evenodd">
        <g id="/g/headerTrance" transform="translate(-137.000000, -10.000000)" fill="#FFFFFF">
            <g id="/g/Header" transform="translate(17.000000, 10.000000)">
                <g id="Group-21" transform="translate(120.000000, 0.000000)">
                    <path d="M55.0464663,13.5871938 C55.1674273,13.6154125 55.2797005,13.6261625 55.3792761,13.6671469 C56.1137298,13.9661313 56.8836029,14.0098031 57.6588224,13.9647875 C58.077842,13.9399281 58.5015395,13.8881938 58.9085298,13.7874125 C59.272081,13.6980531 59.6189249,13.5354594 59.9651005,13.3849594 C60.2157102,13.2761156 60.4696615,13.1592094 60.6935395,13.0033344 C61.0497395,12.7547406 61.4032663,12.4933813 61.7187005,12.1957406 C62.0321298,11.9007875 62.2927639,11.5507406 62.5848078,11.2322719 C62.6329249,11.1805375 62.7224761,11.1415688 62.7933151,11.1408969 C63.4976956,11.1301469 64.2027444,11.1247719 64.9071249,11.1308188 C64.9946712,11.1314906 65.1036029,11.1852406 65.1650859,11.2504125 C65.4958907,11.6018031 65.7986273,11.9807406 66.1407932,12.3200375 C66.6827785,12.8575375 67.3544127,13.1995219 68.0454273,13.4971625 C68.3341298,13.6214594 68.642881,13.7000688 68.9589834,13.8042094 C68.9837102,10.2331938 69.0084371,6.71995938 69.0324956,3.17514688 C68.9148761,3.19261563 68.8360176,3.19530313 68.7618371,3.21680313 C67.7353395,3.51175625 66.708842,3.80939688 65.6830127,4.10838125 C65.6048224,4.131225 65.5319785,4.17825625 65.45312,4.19169375 C65.2820371,4.21924063 65.2486224,4.32270938 65.2492907,4.47858438 C65.2526322,5.15314688 65.2406029,5.82770938 65.2479541,6.5016 C65.249959,6.70114688 65.2025102,6.775725 64.9853151,6.76900625 C64.4520176,6.75355313 63.9180517,6.76967813 63.3840859,6.77102188 C63.0980566,6.77169375 62.8120273,6.76699063 62.4992663,6.764975 C62.5032761,6.1925375 62.509959,5.66914688 62.509959,5.14575625 C62.5106273,4.2467875 62.5106273,3.34781875 62.5006029,2.44885 C62.4992663,2.2876 62.5801298,2.24863125 62.7051005,2.21167813 C63.5177444,1.97450625 64.3283834,1.73061563 65.140359,1.4921 C66.2022761,1.18102188 67.2648615,0.873303125 68.3267785,0.56356875 C68.9462859,0.382834375 69.5637883,0.19538125 70.1859688,0.02606875 C70.3149493,-0.00886875 70.4699932,-0.00886875 70.5983054,0.0274125 C71.8914517,0.392240625 73.1805883,0.769834375 74.4710615,1.13936563 C75.2563054,1.36444375 76.0442224,1.57944375 76.8294663,1.80317813 C77.2925932,1.93486563 77.7543834,2.06789688 78.2114956,2.2204125 C78.2756517,2.2419125 78.3378029,2.37561563 78.3391395,2.45892813 C78.3558468,3.05689688 78.3598566,3.6555375 78.3605249,4.25417813 C78.3618615,5.04094375 78.3565151,5.82770938 78.3525054,6.61380313 C78.3525054,6.67225625 78.342481,6.73070938 78.335798,6.81670938 C77.4362761,6.80999063 76.5447737,6.80394375 75.6171834,6.797225 C75.6205249,6.38536563 75.623198,5.96745938 75.6258712,5.550225 C75.6285444,5.1901 75.6265395,4.83064688 75.634559,4.47119375 C75.6372322,4.34824063 75.6044859,4.2844125 75.4775102,4.24745938 C74.8733737,4.07277188 74.2725785,3.8866625 73.6704468,3.70592813 C73.1384859,3.54669375 72.60452,3.39283438 72.0738956,3.22889688 C71.8232859,3.15163125 71.798559,3.16170938 71.798559,3.4136625 C71.7972224,5.86264688 71.7952176,8.31163125 71.793881,10.7606156 C71.7925444,11.6663031 71.7898712,12.5719906 71.7898712,13.4776781 C71.7898712,13.5663656 71.8012322,13.6550531 71.80992,13.795475 C72.033798,13.7457562 72.2543346,13.7350063 72.4387834,13.6476625 C73.0222029,13.3728656 73.6082956,13.096725 74.1623102,12.7668344 C74.6508322,12.4765844 75.0257444,12.0425531 75.3779346,11.5950844 C75.4828566,11.4613813 75.5704029,11.2967719 75.7060663,11.2101 C75.8243541,11.13485 75.9987785,11.1314906 76.1491444,11.129475 C76.7552859,11.1214125 77.3634322,11.1314906 77.9709102,11.1214125 C78.1446663,11.118725 78.2348859,11.17785 78.3498322,11.3182719 C78.6786322,11.720725 79.032159,12.1050375 79.4064029,12.4658344 C79.9263346,12.9683969 80.5672273,13.2882094 81.2315102,13.5576313 C81.8904468,13.8257094 82.5854712,13.9365688 83.2885151,13.9963656 C84.0757639,14.0628813 84.8262566,13.8525844 85.6429102,13.644975 C85.6415737,13.870725 85.6402371,14.0756469 85.6382322,14.279225 C85.6335541,14.9316156 85.6215249,15.5833344 85.6255346,16.2350531 C85.6275395,16.4473656 85.5707346,16.5380688 85.3441834,16.5924906 C84.4199346,16.8135375 83.4849932,16.7819594 82.5547298,16.719475 C81.7775054,16.6677406 81.0377054,16.4131 80.2938956,16.1752562 C79.2600468,15.8440219 78.3825785,15.2648656 77.5351834,14.61785 C77.383481,14.5009438 77.2478176,14.35985 77.1108176,14.2241313 C77.0119102,14.1273813 76.9357249,14.1226781 76.8294663,14.2241313 C76.2012712,14.8214281 75.4915444,15.2964437 74.7250127,15.7029281 C73.8528907,16.1645063 72.9253005,16.4258656 71.969642,16.6139906 C71.8446712,16.6381781 71.7811834,16.6939438 71.78252,16.8390688 C71.7898712,18.0007406 71.7892029,19.1624125 71.7918761,20.3234125 C71.7918761,20.3536469 71.7958859,20.3838813 71.7952176,20.4134438 C71.7865298,20.9045844 71.7865298,20.89585 72.287081,20.8965219 C74.1469395,20.8992094 76.0061298,20.9106313 77.86532,20.9139906 C79.054881,20.9166781 80.2437737,20.9079438 81.431998,20.9106313 C82.703759,20.9133188 83.9748517,20.9213813 85.2452761,20.9314594 C85.6248663,20.9348187 85.6228615,20.9422094 85.6208566,21.3285375 C85.6175151,22.0104906 85.6175151,22.6924438 85.614842,23.3743969 C85.614842,23.4476313 85.6074907,23.5208656 85.6021444,23.6364281 C85.1523834,23.6330687 84.7159883,23.6283656 84.2789249,23.6270219 C83.0064956,23.6223187 81.7340663,23.6182875 80.4609688,23.6156 C78.8149639,23.6129125 77.1696273,23.610225 75.524959,23.610225 C74.3975493,23.610225 73.2701395,23.6142562 72.1420615,23.6176156 C71.7892029,23.6182875 71.787198,23.6203031 71.7865298,23.9777406 C71.7811834,27.10935 71.7765054,30.2416312 71.7698224,33.3732406 C71.7678176,34.6538344 71.7611346,35.9351 71.7591298,37.2156937 C71.7577932,37.6947406 71.7644761,38.1744594 71.7698224,38.6535062 C71.7698224,38.7038969 71.7845249,38.7529437 71.7958859,38.8248344 C71.9916956,38.74085 72.1741395,38.6682875 72.3519054,38.5863187 C73.0796761,38.2497094 73.8087834,37.9131 74.5352176,37.5717875 C75.5162712,37.1108812 76.4926468,36.6398969 77.4750371,36.18235 C78.5128956,35.6986 79.5574371,35.2282875 80.5952956,34.7458812 C81.3030176,34.4173344 82.0033883,34.07535 82.7097737,33.7461312 C82.8641493,33.6735687 82.9055834,33.5633812 82.9055834,33.4061625 C82.9062517,32.3876 82.9142712,31.3683656 82.9176127,30.3491312 C82.9196176,29.5717719 82.9216224,28.7937406 82.9162761,28.0157094 C82.9149395,27.834975 82.950359,27.7496469 83.164881,27.75435 C83.9086907,27.7711469 84.6538371,27.7684594 85.3983151,27.7603969 C85.5800907,27.7583812 85.6282078,27.8262406 85.6268712,27.9955531 C85.6155102,29.4709906 85.6061541,30.9464281 85.6028127,32.4225375 C85.6001395,33.3047094 85.6155102,34.1875531 85.6068224,35.069725 C85.6068224,35.1658031 85.5299688,35.3089125 85.4484371,35.349225 C84.8503151,35.6461937 84.2408322,35.9203187 83.6373639,36.2058656 C82.9396663,36.5357562 82.2453102,36.8730375 81.5469444,37.2022562 C80.63272,37.6342719 79.7151541,38.058225 78.8022663,38.4922562 C78.2596127,38.7509281 77.7269834,39.0304281 77.1856663,39.2884281 C76.5481151,39.5914437 75.9032127,39.8790062 75.2636566,40.1786625 C74.5699688,40.5025062 73.8816273,40.8377719 73.1866029,41.1575844 C72.627242,41.4142406 72.0591932,41.6514125 71.4978273,41.9047094 C71.1456371,42.0646156 70.8021346,42.2426625 70.4492761,42.4005531 C70.3831151,42.4301156 70.2808663,42.4287719 70.2153737,42.3985375 C69.6352956,42.132475 69.0605639,41.8549906 68.483159,41.5835531 C67.8389249,41.2805375 67.1933541,40.9802094 66.5484517,40.6778656 C66.0452273,40.4420375 65.5406663,40.2095687 65.0401151,39.9676937 C64.1840322,39.5538187 63.3339639,39.1291937 62.4745395,38.7220375 C61.8577054,38.4297719 61.2275054,38.1663969 60.6093346,37.8768187 C60.0867298,37.6315844 59.5748176,37.3635062 59.0542176,37.1135687 C58.4520859,36.8233187 57.8446078,36.5431469 57.2418078,36.2542406 C56.618959,35.9559281 56.0081395,35.6293969 55.3732615,35.359975 C55.0718615,35.2323187 54.9849834,35.0630062 54.9882328,34.7526 C55.0057005,33.2388656 55.0036956,31.7251312 55.0097102,30.210725 C55.0123834,29.4783812 55.0224078,28.7460375 55.0163932,28.0130219 C55.0150566,27.8222094 55.079881,27.7718188 55.2636615,27.7751781 C55.9860859,27.7879437 56.7085102,27.7859281 57.4309346,27.7892875 C57.7751054,27.7906312 57.7797834,27.7906312 57.7797834,28.1292562 C57.7804517,29.1411 57.7777785,30.1529437 57.7744371,31.1641156 C57.7717639,31.9065375 57.769759,32.6489594 57.758398,33.3907094 C57.7557249,33.5761469 57.8018371,33.693725 57.9869541,33.7730062 C58.3618663,33.9329125 58.7254176,34.1203656 59.0943151,34.2943812 C59.72652,34.5920219 60.3573883,34.8896625 60.9909298,35.1832719 C61.3551493,35.3519125 61.7240468,35.5111469 62.0889346,35.6791156 C62.5881493,35.9102406 63.0840224,36.1474125 63.5825688,36.3785375 C64.0470322,36.5942094 64.5148371,36.8031625 64.9793005,37.0201781 C65.8059785,37.4051625 66.6299834,37.7955219 67.4566615,38.1798344 C67.9217932,38.3961781 68.3909346,38.6044594 68.8587395,38.8147562 C68.8774517,38.8228187 68.9021785,38.8161 68.9482907,38.8161 C68.9609883,38.6138656 68.9837102,38.4156625 68.9843785,38.2167875 C68.9863834,36.9805375 68.9837102,35.7442875 68.9810371,34.5080375 C68.9797005,33.6460219 68.9710127,32.78535 68.9723493,31.9240062 C68.9743541,30.4714125 68.9823737,29.0194906 68.9883883,27.5668969 C68.9937346,26.3239281 68.9977444,25.0796156 69.0064322,23.8366469 C69.0071005,23.6733812 68.9643298,23.5914125 68.7785444,23.5914125 C67.4867346,23.5927563 66.1942566,23.5820062 64.9017785,23.5799906 C64.1085151,23.5786469 63.3145834,23.5893969 62.52132,23.5867094 C61.1526566,23.5820062 59.7839932,23.5692406 58.4146615,23.5631937 C57.3774712,23.5584906 56.340281,23.5531156 55.3024224,23.5591625 C55.0905737,23.5605062 55.0103785,23.4960063 55.0117151,23.2776469 C55.0163932,22.5741937 55.0070371,21.8700688 54.997681,21.1659437 C54.9950078,21.0013344 55.0377785,20.9220531 55.2228956,20.922725 C56.49332,20.9287719 57.7630761,20.9267563 59.0335005,20.9240688 C59.9463883,20.9213813 60.8592761,20.9113031 61.7728322,20.9086156 C63.2330517,20.9059281 64.6939395,20.9066 66.154159,20.9039125 C67.0302907,20.9025688 67.9057541,20.8951781 68.7812176,20.89585 C68.9362615,20.8965219 68.9903932,20.8380687 68.9890566,20.6828656 C68.9817054,19.6643031 68.9810371,18.6457406 68.9803688,17.6271781 C68.9797005,17.3732094 68.9803688,17.1192406 68.9944029,16.8659437 C69.0030907,16.7006625 68.9429444,16.6247406 68.7792127,16.59585 C67.8522907,16.4305687 66.9881883,16.0865687 66.1407932,15.6807563 C65.3334956,15.2930844 64.6505005,14.7401313 63.984881,14.1576156 C63.89132,14.0756469 63.8311737,14.0823656 63.7422907,14.16635 C62.7351737,15.1183969 61.5603151,15.7896 60.2497932,16.2148969 C59.1972322,16.5568813 58.1152663,16.7282094 57.0052322,16.6455688 C56.4672566,16.6059281 55.929281,16.5588969 55.3933102,16.4964125 C55.0337688,16.4547563 55.0157249,16.4178031 55.0177298,16.0596938 C55.0204029,15.3031625 55.0237444,14.5459594 55.0284224,13.7894281 C55.0290907,13.730975 55.0384468,13.6725219 55.0464663,13.5871938" id="Fill-1"></path>
                    <path d="M29.2865234,20.9371031 C29.0486112,21.2952125 28.8093624,21.65265 28.5721185,22.0121031 C28.0147624,22.8559781 27.4554015,23.6998531 26.9033917,24.5484313 C26.8084941,24.6949 26.7536941,24.6821344 26.6674844,24.5491031 C26.1041137,23.679025 25.5427478,22.808275 24.9706893,21.9442438 C24.7541624,21.6177125 24.5122405,21.3079781 24.2455917,20.9404625 C24.2382405,21.9462594 24.2315576,22.8983063 24.2248746,23.851025 C24.2181917,24.8003844 24.2121771,25.7504156 24.2048259,26.7253063 C24.0958941,26.7333688 23.988299,26.74815 23.8813722,26.74815 C23.3981966,26.7488219 22.915021,26.7374 22.4325137,26.7468063 C22.2607624,26.7508375 22.2126454,26.6910406 22.213955,26.5318063 C22.2206649,25.1242281 22.2273478,23.7179938 22.2266795,22.3117594 C22.2266795,20.8430406 22.2179917,19.3756656 22.2153185,17.9082906 C22.2146502,17.5508531 22.21866,17.562275 22.5755283,17.5703375 C23.1034795,17.5831031 23.632099,17.5810875 24.1607185,17.5770563 C24.3424941,17.5750406 24.4460795,17.6422281 24.5463234,17.8054938 C25.2473624,18.9510406 25.9631039,20.0858375 26.6761722,21.2246656 C26.7102551,21.2797594 26.7577039,21.3274625 26.826538,21.4114469 C26.9742307,21.1856969 27.1112307,20.9854781 27.2388746,20.7792125 C27.8670698,19.7646813 28.4905868,18.7467906 29.1241283,17.7349469 C29.1648941,17.6691031 29.2724893,17.6099781 29.3506795,17.6093063 C29.9688502,17.6032594 30.5876893,17.6173688 31.2065283,17.6126656 C31.4050112,17.6113219 31.4143673,17.7174781 31.4137277,17.8699938 C31.4076844,19.0834 31.402338,20.2974781 31.4030063,21.5108844 C31.4030063,23.1502594 31.4083527,24.7889625 31.4123624,26.4290094 C31.4130307,26.7636031 31.4137277,26.7622594 31.080221,26.7595719 C30.5743234,26.7548688 30.0684259,26.7461344 29.5625283,26.753525 C29.3787478,26.7562125 29.3413234,26.6856656 29.3419917,26.5143375 C29.3480063,24.6955719 29.3453332,22.8761344 29.3453332,21.0573688 C29.3453332,21.0224313 29.3386502,20.9874938 29.3353088,20.9518844 C29.3192698,20.9471813 29.3025624,20.9424781 29.2865234,20.9371031" id="Fill-4"></path>
                    <path d="M115.75277,19.6222438 C115.75678,19.0390563 115.756112,18.4646031 115.774156,17.89015 C115.775492,17.8491656 115.91316,17.7786188 115.988009,17.7779469 C116.693726,17.7739156 117.400112,17.78265 118.105829,17.7866813 C119.0802,17.7920563 120.056575,17.7685406 121.029609,17.8142281 C121.497414,17.8364 121.965887,17.9654 122.420995,18.0923844 C122.760487,18.1877906 123.110004,18.3114156 123.398039,18.5062594 C123.794336,18.7723219 124.162565,19.0934781 124.496043,19.4354625 C125.062756,20.0159625 125.362819,20.7509938 125.537912,21.5323844 C125.696297,22.2432281 125.640829,22.9406344 125.425639,23.6487906 C125.195078,24.4066656 124.79076,25.0449469 124.269492,25.6066344 C123.944034,25.9573531 123.525682,26.2113219 123.081268,26.4189313 C122.144321,26.8569938 121.167278,27.0135406 120.141448,26.9826344 C119.196482,26.9544156 118.249512,26.968525 117.303878,26.9638219 C117.26779,26.96315 117.23237,26.9550875 117.15017,26.9450094 C117.152843,26.6211656 117.155517,26.302025 117.156853,25.9835563 C117.161531,25.0933219 117.165541,24.2037594 117.168882,23.3141969 C117.172224,22.3554313 117.174897,21.3959938 117.17757,20.4372281 C117.178239,20.2504469 117.166209,20.0629938 117.180243,19.8775563 C117.194946,19.6847281 117.112078,19.626275 116.933643,19.6282906 C116.548039,19.6329938 116.163102,19.6249313 115.75277,19.6222438 M119.211853,19.6061188 C119.200492,19.7069 119.191136,19.7505719 119.190468,19.7942438 C119.187795,20.4533531 119.184453,21.1117906 119.183785,21.7709 C119.183117,22.3755875 119.183117,22.9796031 119.186458,23.5836188 C119.189131,24.0331031 119.197151,24.4819156 119.20116,24.9314 C119.201829,25.0368844 119.20918,25.1309469 119.35019,25.1255719 C120.025165,25.0993688 120.702814,25.1047438 121.37378,25.0382281 C121.901063,24.9858219 122.360848,24.7264781 122.731082,24.3361188 C123.267053,23.7704 123.500287,23.0897906 123.468209,22.3144469 C123.418087,21.0835719 122.615468,19.9373531 121.326331,19.7008531 C121.045648,19.6491188 120.756946,19.6289625 120.471585,19.6182125 C120.05858,19.6020875 119.644239,19.6088063 119.211853,19.6061188" id="Fill-6"></path>
                    <path d="M131.684801,19.5946969 C131.680123,20.2161813 131.676781,20.7624156 131.671435,21.30865 C131.670767,21.4188375 131.705518,21.4651969 131.829152,21.464525 C133.024728,21.45915 134.219635,21.4658688 135.415211,21.4598219 C136.009991,21.4564625 136.007986,21.4490719 136.005313,22.0443531 C136.003977,22.3729 135.995289,22.7021188 136.020016,23.0279781 C136.036723,23.2416344 135.959869,23.2779156 135.769406,23.2772438 C134.434157,23.2738844 133.09824,23.2792594 131.762323,23.2839625 C131.749625,23.2839625 131.73626,23.2933688 131.686138,23.3115094 C131.683464,23.7059 131.680123,24.1130563 131.67745,24.5208844 C131.676781,24.66265 131.688142,24.8050875 131.676781,24.9461813 C131.666089,25.1034 131.725567,25.1598375 131.880611,25.1591656 C132.414577,25.1584938 132.949211,25.1705875 133.482508,25.1699156 C134.149464,25.1692438 134.817089,25.1598375 135.483377,25.1551344 C135.794133,25.1531188 136.106225,25.1611813 136.418318,25.1511031 C136.591406,25.1457281 136.654225,25.2035094 136.650216,25.3842438 C136.639523,25.8545563 136.64086,26.3275563 136.650216,26.7985406 C136.653557,26.9705406 136.586728,27.0121969 136.426338,27.01025 C135.452635,26.9974156 134.478933,26.990025 133.50523,26.9893531 C132.278245,26.9886813 131.05126,26.9960719 129.823606,26.9994313 C129.77883,26.9994313 129.735391,26.9987594 129.631806,26.9980875 C129.634479,26.6729 129.637152,26.3537594 129.63782,26.0346187 C129.642499,24.9132594 129.649181,23.7919 129.64985,22.6698688 C129.651186,21.1285875 129.647845,19.5873063 129.643835,18.046025 C129.643167,17.8807438 129.689279,17.8021344 129.87306,17.8047553 C130.574099,17.8142281 131.275138,17.8101969 131.976177,17.8108688 C132.971264,17.8122125 133.965684,17.8122125 134.959435,17.8142281 C135.421894,17.8149 135.883016,17.8276656 136.345474,17.8175875 C136.536606,17.8135563 136.58606,17.8834313 136.583386,18.0641656 C136.576703,18.5049156 136.587396,18.9449938 136.595416,19.3850719 C136.598757,19.5543844 136.557323,19.6350094 136.355499,19.6309781 C135.365757,19.6121656 134.374679,19.6121656 133.385606,19.6067906 C132.825577,19.6027594 132.264879,19.5987281 131.684801,19.5946969" id="Fill-8"></path>
                    <path d="M43.935499,26.7648797 C43.4663576,26.7615203 43.0219429,26.7561453 42.57686,26.7554734 C40.8286063,26.7541297 39.081021,26.7561453 37.3334356,26.7514422 C36.9491673,26.7507703 36.9551919,26.7406922 36.9558502,26.3496609 C36.9571868,24.2366141 36.9538454,22.1242391 36.9558502,20.0118641 C36.9565185,19.2338328 36.9658746,18.4551297 36.9718893,17.6300672 C37.3180649,17.6327547 37.656221,17.6354422 37.9943771,17.6374578 C39.6617673,17.6455203 41.3291576,17.6535828 42.9965478,17.6623172 C43.2264405,17.6636609 43.4563332,17.6730672 43.6862259,17.6730672 C43.8125332,17.6737391 43.8766893,17.7187547 43.876021,17.8571609 C43.8726795,18.2844734 43.8740161,18.7111141 43.8793624,19.1377547 C43.8813673,19.3171453 43.8138698,19.3816453 43.6274161,19.3803016 C42.4579039,19.3702234 41.2883917,19.3722391 40.1188795,19.3688797 C39.8295088,19.3682078 39.5394698,19.3682078 39.250099,19.3628328 C39.0917137,19.3601453 39.0068405,19.4011297 39.010182,19.5912703 C39.0202063,20.0777078 39.0141917,20.5654891 39.0041673,21.0525984 C39.0008259,21.2151922 39.053621,21.2796922 39.2206941,21.2803641 C40.33006,21.2837234 41.4387576,21.2931297 42.5481234,21.3011922 C42.7332405,21.3018641 42.9196941,21.3079109 43.1048112,21.3005203 C43.2444844,21.2958172 43.3093088,21.3408328 43.3093088,21.4913328 C43.3106454,21.9320828 43.31666,22.3735047 43.332699,22.8149266 C43.339382,23.0050672 43.2244356,23.0211922 43.0894405,23.0205203 C42.3830551,23.0178328 41.6760015,23.0084266 40.9696161,23.0097703 C40.3835234,23.0111141 39.7974307,23.0305984 39.2120063,23.0292547 C39.0616405,23.0292547 39.0061722,23.0883797 39.0068405,23.2234266 C39.010182,23.7474891 39.0168649,24.2715516 39.019538,24.7956141 C39.0202063,24.9407391 39.0843624,24.9857547 39.2267088,24.9857547 C39.7833966,24.9850828 40.3400844,24.9971766 40.8961039,25.0025516 C41.8604502,25.0133016 42.8247966,25.0193484 43.7891429,25.0388328 C43.8426063,25.0395047 43.9388405,25.1402859 43.9395088,25.1960516 C43.9475283,25.7046609 43.9395088,26.2139422 43.935499,26.7648797" id="Fill-10"></path>
                    <path d="M104.380033,20.5972688 C103.744486,20.5918938 103.141018,20.5878625 102.496784,20.5831594 C102.498789,20.3332219 102.492106,20.0819406 102.504803,19.8320031 C102.512155,19.6794875 102.495447,19.5975188 102.307657,19.6008781 C101.826486,19.6096125 101.343311,19.6035656 100.861472,19.5941594 C100.726477,19.5914719 100.69774,19.6465656 100.69774,19.7668313 C100.70175,21.57955 100.703755,23.3915969 100.70576,25.2043156 C100.706428,25.7135969 100.707096,26.2228781 100.706428,26.7321594 C100.706428,26.78255 100.695067,26.8329406 100.685711,26.9263313 C100.039472,26.9216281 99.4012522,26.9216281 98.7630327,26.9048313 C98.7149156,26.9034875 98.6307107,26.7852375 98.631379,26.7214094 C98.638062,25.3218938 98.6594473,23.9223781 98.6667985,22.5235344 C98.6721449,21.5963469 98.6607839,20.6684875 98.647418,19.7426438 C98.6467498,19.6902375 98.5551937,19.5988625 98.50574,19.5975188 C97.9985059,19.5827375 97.49194,19.5780344 96.9867107,19.5874406 C96.9379254,19.5881125 96.8550571,19.6909094 96.8517156,19.7507063 C96.8396863,19.9515969 96.8497107,20.1545031 96.8630766,20.3553938 C96.8737693,20.5186594 96.8122863,20.5858469 96.647218,20.5831594 C96.1513449,20.5757688 95.6541351,20.56905 95.1589302,20.5777844 C94.9845059,20.5804719 94.9450766,20.5139563 94.94701,20.3553938 C94.9557693,19.5525031 94.9611156,18.7516281 94.9577741,17.9494094 C94.9564376,17.7633 95.0185888,17.7082063 95.2037059,17.7095261 C96.6786278,17.7250031 98.1528815,17.7330656 99.6271351,17.7377688 C100.411042,17.7397844 101.194281,17.7263469 101.978189,17.7276906 C102.679896,17.7297063 103.382272,17.7438156 104.083979,17.75255 C104.120067,17.75255 104.15816,17.7505344 104.193579,17.7418 C104.355306,17.7055188 104.40476,17.7780813 104.402813,17.9326125 C104.39674,18.4197219 104.397408,18.9061594 104.39674,19.3939406 C104.39674,19.7083781 104.401418,20.0228156 104.400081,20.3365813 C104.400081,20.4178781 104.388052,20.499175 104.380033,20.5972688" id="Fill-12"></path>
                    <path d="M3.71029415,19.3840641 C3.43362098,19.3820484 3.16296244,19.3780172 2.8929722,19.3786891 C2.64904537,19.3800328 2.40378195,19.4001891 2.16052341,19.3860797 C1.95535756,19.3726422 1.90122585,19.4539391 1.91459171,19.6454234 C1.92862585,19.8395953 1.9239478,20.0357828 1.90991366,20.2292828 C1.9059039,20.2843766 1.83974293,20.3797828 1.80231854,20.3797828 C1.21555756,20.3858297 0.628796585,20.3784391 -6.68292683e-05,20.3744078 C0.00394292683,19.8698297 0.00728439024,19.3847359 0.00995756098,18.9009859 C0.0126307317,18.5039078 0.0193136585,18.1075016 0.0132990244,17.7097516 C0.0112941463,17.5646266 0.0594112195,17.5102047 0.205099024,17.5108704 C1.77024049,17.5182672 3.33538195,17.5216266 4.90052341,17.5256578 C6.35272341,17.5296891 7.80559171,17.5357359 9.25779171,17.5397672 C9.36605512,17.5397672 9.44825512,17.5639547 9.44759088,17.6996734 C9.44224049,18.5690797 9.43956732,19.4378141 9.43488927,20.3072203 C9.43488927,20.3273766 9.42152341,20.3488766 9.40815756,20.3851578 C8.80402098,20.3811266 8.19721122,20.3777672 7.53560146,20.3730641 C7.53760634,20.1251422 7.52891854,19.8799078 7.54428927,19.6380328 C7.55498195,19.4727516 7.53025512,19.3887672 7.33645024,19.3927984 C6.87466,19.4008609 6.41220146,19.3981734 5.95107951,19.3860797 C5.77732341,19.3807047 5.74056732,19.4445328 5.74123561,19.6064547 C5.75192829,21.1645328 5.75593805,22.7232828 5.7599478,24.2800172 C5.76195268,25.0063141 5.75460146,25.7326109 5.76462585,26.4582359 C5.76729902,26.6490484 5.68042098,26.6880172 5.5227039,26.6873453 C5.01146,26.6866734 4.5002161,26.6826422 3.98964049,26.6947359 C3.7871478,26.6994391 3.73167951,26.6477047 3.73502098,26.4273297 C3.75106,25.3187359 3.74370878,24.2101422 3.74103561,23.1008766 C3.73769415,21.9257672 3.72967463,20.7499859 3.72366,19.5748766 C3.72299171,19.5238141 3.71630878,19.4734234 3.71029415,19.3840641" id="Fill-14"></path>
                    <path d="M110.915467,26.9590516 C110.256531,26.9543484 109.643706,26.9456141 109.030214,26.9489734 C108.86715,26.9496453 108.853116,26.8670047 108.854453,26.7386766 C108.861804,26.0123797 108.868487,25.2854109 108.867819,24.5597859 C108.865145,22.8149266 108.857794,21.0707391 108.851111,19.3272234 C108.849106,18.8784109 108.847101,18.4289266 108.840419,17.9801141 C108.837745,17.8249109 108.87918,17.7536922 109.056277,17.7577234 C109.604945,17.7711609 110.15495,17.7698172 110.705623,17.7637703 C110.880716,17.7624266 110.932843,17.8262547 110.930838,18.0016141 C110.920145,19.1330516 110.914131,20.2638172 110.913462,21.3959266 C110.912126,23.1387703 110.916136,24.8829578 110.91814,26.6264734 C110.91814,26.7218797 110.916136,26.8172859 110.915467,26.9590516" id="Fill-17"></path>
                    <path d="M13.8903966,22.8635031 C13.8984161,21.6957844 13.9077722,20.5267219 13.9144551,19.3583313 C13.9171283,18.8141125 13.9184649,18.2692219 13.9111137,17.7243313 C13.9097771,17.5986906 13.9405185,17.5476281 14.0721722,17.5495865 C14.6455673,17.5570344 15.2196307,17.5610656 15.7930259,17.5570344 C15.9567576,17.5556906 15.948738,17.6524406 15.948738,17.7606125 C15.9534161,18.9357219 15.960099,20.1108313 15.9627722,21.2866125 C15.966782,22.993175 15.9687868,24.7004094 15.9707917,26.4076438 C15.97146,26.7133469 15.9707917,26.712675 15.6640454,26.712675 C15.138099,26.7133469 14.6121527,26.712675 14.0862063,26.7180924 C13.9411868,26.7200656 13.9111137,26.6501906 13.911782,26.5238781 C13.91646,25.7008313 13.9171283,24.8764406 13.9198015,24.0527219 C13.921138,23.6569875 13.9251478,23.2605813 13.927821,22.8635031 L13.8903966,22.8635031" id="Fill-19"></path>
                </g>
            </g>
        </g>
    </g>
</svg>