<?xml version="1.0" encoding="UTF-8"?>
<svg width="18px" height="18px" viewBox="0 0 18 18" version="1.1" xmlns="http://www.w3.org/2000/svg" xmlns:xlink="http://www.w3.org/1999/xlink">
    <title>Combined Shape</title>
    <g id="Symbols" stroke="none" stroke-width="1" fill="none" fill-rule="evenodd">
        <g id="/g/footer-desktop" transform="translate(-276.000000, -59.000000)" fill="#FFFFFF" fill-rule="nonzero">
            <g id="Group-2" transform="translate(198.000000, 59.000000)">
                <path d="M86.9314195,3.55271368e-15 C91.8644338,3.55271368e-15 95.8628389,3.73094099 95.8628389,8.33333334 C95.8628389,12.9354067 91.8644338,16.6666667 86.9314195,16.6666667 C86.0111643,16.6666667 85.1229665,16.5366826 84.2874003,16.2958533 L84.2874003,16.2958533 L81.2898724,18 L81.2898724,14.7942584 C79.2821372,13.2663477 78,10.9393939 78,8.33333334 C78,3.73094099 81.9987241,3.55271368e-15 86.9314195,3.55271368e-15 Z M92.6244019,6.05087722 L88.2894737,8.41387563 L85.9776714,6.05087722 L81.1610048,11.1507177 L85.5445774,8.74561403 L87.8349282,11.1507177 L92.6244019,6.05087722 Z" id="Combined-Shape"></path>
            </g>
        </g>
    </g>
</svg>