<?xml version="1.0" encoding="UTF-8"?>
<svg width="36px" height="36px" viewBox="0 0 36 36" version="1.1" xmlns="http://www.w3.org/2000/svg" xmlns:xlink="http://www.w3.org/1999/xlink">
    <title>Group 14</title>
    <g id="TT-Desktop" stroke="none" stroke-width="1" fill="none" fill-rule="evenodd">
        <g id="Article-Page-In-Depth" transform="translate(-1295.000000, -604.000000)">
            <g id="Group" transform="translate(1295.000000, 604.000000)">
                <circle id="Oval" fill="#FFFFFF" cx="18" cy="18" r="18"></circle>
                <g id="/g/bookmark" transform="translate(13.000000, 11.000000)" fill="#2B4242" stroke="#2B4242" stroke-width="0.23">
                    <path d="M0.424823708,13.9979118 C0.18312101,13.9749218 -0.0012067898,13.768012 5.94955771e-06,13.5207102 L5.94955771e-06,1.11347029 C5.94955771e-06,0.505165566 0.496229831,0 1.09376003,0 L8.90624622,0 C9.50377642,0 10.0000059,0.505165566 10.0000059,1.11347029 L10.0000059,13.5207102 C10.0006052,13.6990405 9.90355852,13.8624502 9.74852599,13.9451015 C9.59349657,14.0277417 9.40612034,14.0153153 9.26268309,13.9134121 L5.00003437,10.9210407 L0.737385655,13.9134121 C0.646443629,13.9786551 0.535354762,14.0084802 0.424886207,13.9979166 L0.424823708,13.9979118 Z M0.937432177,12.6110373 L4.73140985,9.94666195 C4.89253456,9.83171046 5.10737794,9.83171046 5.26851828,9.94666195 L9.06241782,12.6110373 L9.06241782,1.11350211 C9.06241782,1.0171917 9.00077262,0.954434922 8.9061681,0.954434922 L1.0936819,0.954434922 C0.999077381,0.954434922 0.937432177,1.0171917 0.937432177,1.11350211 L0.937432177,12.6110373 Z" id="Fill-1"></path>
                </g>
            </g>
        </g>
    </g>
</svg>