<?xml version="1.0" encoding="UTF-8"?>
<svg width="51px" height="51px" viewBox="0 0 51 51" version="1.1" xmlns="http://www.w3.org/2000/svg" xmlns:xlink="http://www.w3.org/1999/xlink">
    <title>Group 6</title>
    <g id="BellyBand" stroke="none" stroke-width="1" fill="none" fill-rule="evenodd">
        <g id="Belly-Band" transform="translate(-88.000000, -3257.000000)">
            <g id="Video-Section" transform="translate(0.000000, 3139.000000)">
                <g id="Group-6" transform="translate(88.000000, 118.000000)">
                    <circle id="Oval" fill="#FFFFFF" cx="25.5" cy="25.5" r="25.5"></circle>
                    <g id="/b/TTLogoWhiteSymbol" transform="translate(15.000000, 12.000000)" fill="#000000">
                        <g id="Group-21" transform="translate(0.656250, 0.000000)">
                            <path d="M0.149825,8.2155125 C0.22335625,8.232575 0.29160625,8.239075 0.3521375,8.26385625 C0.79860625,8.4446375 1.26660625,8.47104375 1.73785625,8.443825 C1.992575,8.42879375 2.2501375,8.3975125 2.49754375,8.336575 C2.71854375,8.28254375 2.9293875,8.18423125 3.139825,8.09323125 C3.29216875,8.02741875 3.44654375,7.95673125 3.5826375,7.86248125 C3.79916875,7.71216875 4.014075,7.5541375 4.205825,7.37416875 C4.39635625,7.195825 4.55479375,6.98416875 4.732325,6.79160625 C4.761575,6.760325 4.8160125,6.7367625 4.859075,6.73635625 C5.2872625,6.72985625 5.71585625,6.72660625 6.14404375,6.7302625 C6.1972625,6.73066875 6.26348125,6.76316875 6.30085625,6.802575 C6.50195,7.01504375 6.68598125,7.24416875 6.89398125,7.449325 C7.22345,7.774325 7.63173125,7.98110625 8.05179375,8.161075 C8.22729375,8.23623125 8.41498125,8.2837625 8.6071375,8.34673125 C8.62216875,6.1875125 8.6372,4.06323125 8.651825,1.91985625 C8.580325,1.93041875 8.5323875,1.93204375 8.48729375,1.94504375 C7.86329375,2.1233875 7.23929375,2.30335625 6.6157,2.4841375 C6.56816875,2.49795 6.5238875,2.5263875 6.47595,2.5345125 C6.37195,2.55116875 6.3516375,2.61373125 6.35204375,2.70798125 C6.354075,3.11585625 6.3467625,3.52373125 6.35123125,3.9312 C6.35245,4.05185625 6.32360625,4.09695 6.191575,4.0928875 C5.8673875,4.08354375 5.54279375,4.09329375 5.2182,4.09410625 C5.044325,4.0945125 4.87045,4.09166875 4.680325,4.09045 C4.6827625,3.744325 4.686825,3.42785625 4.686825,3.1113875 C4.68723125,2.567825 4.68723125,2.0242625 4.6811375,1.4807 C4.680325,1.3832 4.72948125,1.3596375 4.80545,1.33729375 C5.29945,1.1938875 5.79223125,1.04641875 6.285825,0.9022 C6.93135625,0.71410625 7.57729375,0.52804375 8.222825,0.3407625 C8.59941875,0.23148125 8.97479375,0.1181375 9.3530125,0.0157625 C9.43141875,-0.0053625 9.52566875,-0.0053625 9.60366875,0.016575 C10.3897625,0.23716875 11.1734188,0.46548125 11.9578875,0.68891875 C12.4352313,0.8250125 12.9142,0.9550125 13.3915438,1.09029375 C13.673075,1.16991875 13.9537938,1.25035625 14.2316688,1.342575 C14.2706688,1.355575 14.30845,1.43641875 14.3092625,1.48679375 C14.3194188,1.84835625 14.3218563,2.210325 14.3222625,2.57229375 C14.323075,3.0480125 14.319825,3.52373125 14.3173875,3.99904375 C14.3173875,4.0343875 14.3112938,4.06973125 14.3072313,4.12173125 C13.7604188,4.11766875 13.2184813,4.1140125 12.6546063,4.10995 C12.6566375,3.86091875 12.6582625,3.60823125 12.6598875,3.35595 C12.6615125,3.1382 12.6602938,2.92085625 12.6651688,2.7035125 C12.6667938,2.62916875 12.6468875,2.590575 12.5697,2.56823125 C12.20245,2.46260625 11.8372313,2.350075 11.4712,2.24079375 C11.147825,2.1445125 10.8232313,2.05148125 10.5006688,1.95235625 C10.348325,1.9056375 10.3332938,1.91173125 10.3332938,2.064075 C10.3324813,3.54485625 10.3312625,5.0256375 10.33045,6.50641875 C10.3296375,7.05404375 10.3280125,7.60166875 10.3280125,8.14929375 C10.3280125,8.20291875 10.3349188,8.25654375 10.3402,8.34145 C10.4762938,8.3113875 10.6103563,8.3048875 10.7224813,8.252075 C11.0771375,8.08591875 11.4334188,7.91895 11.7702,7.71948125 C12.0671688,7.54398125 12.295075,7.28154375 12.5091688,7.01098125 C12.57295,6.9301375 12.6261688,6.83060625 12.7086375,6.7782 C12.7805438,6.7327 12.886575,6.73066875 12.9779813,6.72945 C13.34645,6.724575 13.7161375,6.73066875 14.0854188,6.724575 C14.1910438,6.72295 14.2458875,6.7587 14.3157625,6.84360625 C14.5156375,7.08695 14.7305438,7.319325 14.9580438,7.53748125 C15.2741063,7.84135625 15.6637,8.03473125 16.0675125,8.1976375 C16.468075,8.35973125 16.890575,8.4267625 17.31795,8.46291875 C17.7965125,8.5031375 18.2527313,8.37598125 18.7491688,8.25045 C18.7483563,8.38695 18.7475438,8.51085625 18.746325,8.63395 C18.7434813,9.02841875 18.7361688,9.42248125 18.7386063,9.81654375 C18.739825,9.94491875 18.7052938,9.9997625 18.567575,10.0326688 C18.0057313,10.166325 17.4373875,10.1472313 16.8718875,10.10945 C16.3994188,10.0781688 15.9497,9.9242 15.4975438,9.7803875 C14.869075,9.58010625 14.3356688,9.22991875 13.8205438,8.8387 C13.728325,8.7680125 13.6458563,8.6827 13.562575,8.6006375 C13.50245,8.5421375 13.4561375,8.53929375 13.3915438,8.6006375 C13.0096688,8.96179375 12.5782313,9.2490125 12.1122625,9.49479375 C11.5821063,9.7738875 11.0182313,9.93191875 10.4372938,10.0456688 C10.361325,10.0602938 10.3227313,10.0940125 10.3235438,10.1817625 C10.3280125,10.8841688 10.3276063,11.586575 10.3292313,12.288575 C10.3292313,12.3068563 10.3316688,12.3251375 10.3312625,12.3430125 C10.3259813,12.6399813 10.3259813,12.6347 10.6302625,12.6351063 C11.7608563,12.6367313 12.8910438,12.6436375 14.0212313,12.6456688 C14.7443563,12.6472938 15.467075,12.6420125 16.1893875,12.6436375 C16.9624813,12.6452625 17.7351688,12.6501375 18.50745,12.6562313 C18.7382,12.6582625 18.7369813,12.6627313 18.7357625,12.896325 C18.7337313,13.3086688 18.7337313,13.7210125 18.7321063,14.1333563 C18.7321063,14.1776375 18.7276375,14.2219188 18.7243875,14.2917938 C18.4509813,14.2897625 18.1857,14.2869188 17.9200125,14.2861063 C17.1465125,14.2832625 16.3730125,14.280825 15.5991063,14.2792 C14.5985125,14.277575 13.598325,14.27595 12.5985438,14.27595 C11.9132,14.27595 11.2278563,14.2783875 10.5421063,14.2804188 C10.3276063,14.280825 10.3263875,14.2820438 10.3259813,14.4981688 C10.3227313,16.3917 10.3198875,18.2856375 10.315825,20.1791688 C10.3146063,20.9534813 10.3105438,21.7282 10.309325,22.5025125 C10.3085125,22.7921688 10.312575,23.0822313 10.315825,23.3718875 C10.315825,23.4023563 10.3247625,23.4320125 10.3316688,23.4754813 C10.4507,23.4247 10.5616063,23.380825 10.6696688,23.3312625 C11.112075,23.1277313 11.5552938,22.9242 11.9968875,22.717825 C12.5932625,22.4391375 13.1867938,22.1543563 13.7839813,21.8777 C14.4148875,21.5852 15.0498563,21.300825 15.6807625,21.0091375 C16.1109813,20.8104813 16.5367313,20.6037 16.9661375,20.4046375 C17.0599813,20.3607625 17.0851688,20.2941375 17.0851688,20.199075 C17.085575,19.5832 17.09045,18.9669188 17.0924813,18.3506375 C17.0937,17.8806063 17.0949188,17.4101688 17.0916688,16.9397313 C17.0908563,16.83045 17.1123875,16.7788563 17.2427938,16.7817 C17.69495,16.7918563 18.1479188,16.7902313 18.6004813,16.7853563 C18.7109813,16.7841375 18.7402313,16.8251688 18.7394188,16.9275438 C18.7325125,17.8196688 18.726825,18.7117938 18.7247938,19.604325 C18.7231688,20.1377313 18.7325125,20.6715438 18.7272313,21.20495 C18.7272313,21.2630438 18.6805125,21.349575 18.63095,21.37395 C18.2673563,21.5535125 17.8968563,21.7192625 17.5300125,21.8919188 C17.1058875,22.0913875 16.6837938,22.295325 16.2592625,22.4943875 C15.7035125,22.7556063 15.1457313,23.01195 14.5907938,23.2743875 C14.2609188,23.4307938 13.9371375,23.5997938 13.608075,23.7557938 C13.2205125,23.9390125 12.8284813,24.1128875 12.4397,24.294075 C12.0180125,24.4898875 11.599575,24.6926063 11.177075,24.8859813 C10.8370438,25.0411688 10.4917313,25.184575 10.1504813,25.3377313 C9.9363875,25.4344188 9.727575,25.542075 9.513075,25.6375438 C9.47285625,25.6554188 9.4107,25.6546063 9.3708875,25.636325 C9.0182625,25.47545 8.6688875,25.3076688 8.3178875,25.1435438 C7.9262625,24.960325 7.533825,24.7787313 7.14179375,24.5959188 C6.8358875,24.453325 6.52916875,24.3127625 6.2248875,24.1665125 C5.70448125,23.9162625 5.18773125,23.6595125 4.66529375,23.413325 C4.290325,23.2366063 3.90723125,23.0773563 3.53145,22.9022625 C3.2137625,22.7539813 2.902575,22.5918875 2.58610625,22.4407625 C2.220075,22.2652625 1.85079375,22.0958563 1.48435625,21.9211688 C1.10573125,21.7407938 0.73441875,21.5433563 0.34848125,21.38045 C0.1652625,21.3032625 0.11245,21.2008875 0.114425297,21.0132 C0.12504375,20.0979188 0.123825,19.1826375 0.12748125,18.26695 C0.12910625,17.8241375 0.1352,17.381325 0.13154375,16.9381063 C0.13073125,16.8227313 0.1701375,16.7922625 0.28185625,16.7942938 C0.7210125,16.8020125 1.16016875,16.8007938 1.599325,16.802825 C1.80854375,16.8036375 1.8113875,16.8036375 1.8113875,17.0083875 C1.81179375,17.6202 1.81016875,18.2320125 1.8081375,18.8434188 C1.8065125,19.292325 1.80529375,19.7412313 1.7983875,20.1897313 C1.7967625,20.3018563 1.82479375,20.37295 1.937325,20.4208875 C2.16523125,20.517575 2.38623125,20.6309188 2.61048125,20.7361375 C2.99479375,20.9161063 3.37829375,21.096075 3.76341875,21.2736063 C3.984825,21.375575 4.209075,21.4718563 4.4308875,21.5734188 C4.73435625,21.7131688 5.03579375,21.856575 5.33885625,21.996325 C5.6212,22.1267313 5.905575,22.253075 6.18791875,22.3842938 C6.69045,22.617075 7.19135625,22.8531063 7.6938875,23.0854813 C7.9766375,23.2162938 8.261825,23.3422313 8.5462,23.4693875 C8.557575,23.4742625 8.57260625,23.4702 8.6006375,23.4702 C8.60835625,23.3479188 8.62216875,23.228075 8.622575,23.107825 C8.62379375,22.360325 8.62216875,21.612825 8.62054375,20.865325 C8.61973125,20.3441063 8.61445,19.8237 8.6152625,19.3028875 C8.61648125,18.424575 8.62135625,17.5466688 8.6250125,16.6683563 C8.6282625,15.9167938 8.6307,15.1644188 8.63598125,14.4128563 C8.6363875,14.3141375 8.6103875,14.264575 8.49745,14.264575 C7.71216875,14.2653875 6.92648125,14.2588875 6.14079375,14.2576688 C5.658575,14.2568563 5.17595,14.2633563 4.69373125,14.2617313 C3.86173125,14.2588875 3.02973125,14.2511688 2.197325,14.2475125 C1.566825,14.2446688 0.936325,14.2414188 0.30541875,14.245075 C0.1766375,14.2458875 0.1278875,14.2068875 0.1287,14.0748563 C0.13154375,13.6495125 0.12585625,13.2237625 0.12016875,12.7980125 C0.11854375,12.6984813 0.14454375,12.6505438 0.257075,12.65095 C1.02935625,12.6546063 1.80123125,12.6533875 2.5735125,12.6517625 C3.12845,12.6501375 3.6833875,12.6440438 4.23873125,12.6424188 C5.1263875,12.6407938 6.01445,12.6412 6.90210625,12.639575 C7.4347,12.6387625 7.9668875,12.6342938 8.499075,12.6347 C8.593325,12.6351063 8.62623125,12.5997625 8.62541875,12.5059188 C8.62095,11.8900438 8.62054375,11.2741688 8.6201375,10.6582938 C8.61973125,10.5047313 8.6201375,10.3511688 8.62866875,10.1980125 C8.63395,10.098075 8.5973875,10.0521688 8.49785625,10.0347 C7.9343875,9.9347625 7.40910625,9.7267625 6.89398125,9.4813875 C6.40323125,9.24698125 5.98804375,8.9126375 5.58341875,8.56041875 C5.52654375,8.51085625 5.48998125,8.51491875 5.43595,8.5657 C4.82373125,9.14135625 4.10954375,9.5472 3.3128875,9.80435625 C2.67304375,10.0111375 2.015325,10.1147313 1.34054375,10.0647625 C1.0135125,10.0407938 0.68648125,10.0123563 0.36066875,9.974575 C0.14210625,9.9493875 0.1311375,9.92704375 0.13235625,9.7105125 C0.13398125,9.253075 0.1360125,8.79523125 0.13885625,8.33779375 C0.1392625,8.30245 0.14495,8.26710625 0.149825,8.2155125" id="Fill-1"></path>
                        </g>
                    </g>
                </g>
            </g>
        </g>
    </g>
</svg>