<?xml version="1.0" encoding="UTF-8"?>
<svg width="33px" height="45px" viewBox="0 0 33 45" version="1.1" xmlns="http://www.w3.org/2000/svg" xmlns:xlink="http://www.w3.org/1999/xlink">
    <title>b/TTLogoWhiteSymbol</title>
    <g id="Symbols" stroke="none" stroke-width="1" fill="none" fill-rule="evenodd">
        <g id="/g/footer-desktop" transform="translate(-91.000000, -44.000000)" fill="#FFFFFF">
            <g id="Group" transform="translate(85.000000, 44.000000)">
                <g id="Group-21" transform="translate(6.328125, 0.000000)">
                    <path d="M0.2593125,14.2191563 C0.386578125,14.2486875 0.504703125,14.2599375 0.60946875,14.3028281 C1.38220313,14.6157188 2.19220313,14.6614219 3.00782813,14.6143125 C3.4486875,14.5882969 3.89446875,14.5341563 4.32267188,14.4286875 C4.70517188,14.3351719 5.07009375,14.1650156 5.4343125,14.0075156 C5.69798438,13.8936094 5.96517188,13.7712656 6.20071875,13.6081406 C6.57548438,13.3479844 6.9474375,13.0744688 7.2793125,12.7629844 C7.60907813,12.4543125 7.88329688,12.0879844 8.1905625,11.7547031 C8.2411875,11.7005625 8.33540625,11.6597813 8.4099375,11.6590781 C9.15103125,11.6478281 9.89282813,11.6422031 10.6339219,11.6485313 C10.7260313,11.6492344 10.8406406,11.7054844 10.9053281,11.7736875 C11.253375,12.1414219 11.5718906,12.5379844 11.9318906,12.8930625 C12.502125,13.4555625 13.2087656,13.8134531 13.9357969,14.1249375 C14.2395469,14.2550156 14.5643906,14.3372813 14.8969688,14.4462656 C14.9229844,10.7091563 14.949,7.03251563 14.9743125,3.32282813 C14.8505625,3.34110938 14.7675938,3.34392188 14.6895469,3.36642188 C13.6095469,3.67509375 12.5295469,3.98657813 11.45025,4.29946875 C11.3679844,4.323375 11.2913438,4.37259375 11.208375,4.38665625 C11.028375,4.41548438 10.9932188,4.52376563 10.9939219,4.68689063 C10.9974375,5.39282813 10.9847813,6.09876563 10.9925156,6.804 C10.994625,7.01282813 10.9447031,7.090875 10.7161875,7.08384375 C10.1550938,7.06767188 9.59329688,7.08454688 9.0315,7.08595313 C8.7305625,7.08665625 8.429625,7.08173438 8.1005625,7.079625 C8.10478125,6.4805625 8.1118125,5.93282813 8.1118125,5.38509375 C8.11251563,4.4443125 8.11251563,3.50353125 8.10196875,2.56275 C8.1005625,2.394 8.18564063,2.35321875 8.317125,2.31454688 C9.172125,2.06634375 10.0250156,1.81110938 10.8793125,1.5615 C11.9965781,1.23595313 13.1145469,0.913921875 14.2318125,0.58978125 C14.8836094,0.400640625 15.5332969,0.20446875 16.1879063,0.02728125 C16.3236094,-0.00928125 16.4867344,-0.00928125 16.6217344,0.0286875 C17.9822813,0.410484375 19.3386094,0.805640625 20.6963438,1.19235938 C21.5225156,1.42790625 22.3515,1.65290625 23.1776719,1.88704688 C23.6649375,2.02485938 24.1507969,2.16407813 24.6317344,2.3236875 C24.6992344,2.3461875 24.764625,2.48610938 24.7660313,2.57329688 C24.7836094,3.19907813 24.7878281,3.8255625 24.7885313,4.45204688 C24.7899375,5.27540625 24.7843125,6.09876563 24.7800938,6.92142188 C24.7800938,6.98259375 24.7695469,7.04376563 24.7625156,7.13376563 C23.8161094,7.12673438 22.8781406,7.12040625 21.9022031,7.113375 C21.9057188,6.68235938 21.9085313,6.24501563 21.9113438,5.808375 C21.9141563,5.4315 21.9120469,5.05532813 21.9204844,4.67915625 C21.9232969,4.55048438 21.8888438,4.4836875 21.75525,4.44501563 C21.119625,4.26220313 20.4875156,4.0674375 19.854,3.87829688 C19.2943125,3.71165625 18.7325156,3.55064063 18.1742344,3.37907813 C17.9105625,3.29821875 17.8845469,3.30876563 17.8845469,3.5724375 C17.8831406,6.13532813 17.8810313,8.69821875 17.879625,11.2611094 C17.8782188,12.2089219 17.8754063,13.1567344 17.8754063,14.1045469 C17.8754063,14.1973594 17.8873594,14.2901719 17.8965,14.437125 C18.1320469,14.3850937 18.3640781,14.3738438 18.5581406,14.2824375 C19.1719688,13.9948594 19.7886094,13.705875 20.3715,13.3606406 C20.8854844,13.0568906 21.2799375,12.6026719 21.6504844,12.1343906 C21.760875,11.9944688 21.8529844,11.8222031 21.9957188,11.7315 C22.1201719,11.65275 22.3036875,11.6492344 22.4618906,11.647125 C23.099625,11.6386875 23.7394688,11.6492344 24.3786094,11.6386875 C24.5614219,11.635875 24.6563438,11.69775 24.7772813,11.8447031 C25.1232188,12.265875 25.4951719,12.6680625 25.8889219,13.0456406 C26.4359531,13.5715781 27.11025,13.9062656 27.8091563,14.1882188 C28.5024375,14.4687656 29.2336875,14.5847813 29.973375,14.6473594 C30.8016563,14.7169687 31.5912656,14.4968906 32.4504844,14.279625 C32.4490781,14.515875 32.4476719,14.7303281 32.4455625,14.943375 C32.4406406,15.6261094 32.4279844,16.3081406 32.4322031,16.9901719 C32.4343125,17.2123594 32.3745469,17.3072813 32.1361875,17.3642344 C31.1637656,17.5955625 30.1800938,17.5625156 29.2013438,17.497125 C28.3836094,17.4429844 27.60525,17.1765 26.8226719,16.9275937 C25.7349375,16.5809531 24.8117344,15.9748594 23.9201719,15.29775 C23.7605625,15.1754063 23.6178281,15.02775 23.4736875,14.8857188 C23.369625,14.7844688 23.2894688,14.7795469 23.1776719,14.8857188 C22.5167344,15.5107969 21.7700156,16.0079062 20.9635313,16.4332969 C20.0459531,16.9163438 19.0700156,17.1898594 18.0645469,17.3867344 C17.9330625,17.4120469 17.8662656,17.4704063 17.8676719,17.6222813 C17.8754063,18.8379844 17.8747031,20.0536875 17.8775156,21.2686875 C17.8775156,21.3003281 17.8817344,21.3319688 17.8810313,21.3629063 C17.8718906,21.8768906 17.8718906,21.86775 18.3985313,21.8684531 C20.3553281,21.8712656 22.3114219,21.8832187 24.2675156,21.8867344 C25.5190781,21.8895469 26.7699375,21.8804063 28.0200938,21.8832187 C29.3581406,21.8860313 30.6954844,21.8944688 32.032125,21.9050156 C32.4315,21.9085312 32.4293906,21.9162656 32.4272813,22.3205625 C32.4237656,23.0342344 32.4237656,23.7479062 32.4209531,24.4615781 C32.4209531,24.5382187 32.4132188,24.6148594 32.4075938,24.7357969 C31.9343906,24.7322812 31.47525,24.7273594 31.0154063,24.7259531 C29.6766563,24.7210313 28.3379063,24.7168125 26.9984531,24.714 C25.2666563,24.7111875 23.5355625,24.708375 21.8051719,24.708375 C20.619,24.708375 19.4328281,24.7125937 18.2459531,24.7161094 C17.8747031,24.7168125 17.8725938,24.7189219 17.8718906,25.0929844 C17.8662656,28.37025 17.8613438,31.6482187 17.8543125,34.9254844 C17.8522031,36.2656406 17.8451719,37.6065 17.8430625,38.9466562 C17.8416563,39.4479844 17.8486875,39.9500156 17.8543125,40.4513437 C17.8543125,40.5040781 17.8697813,40.5554062 17.8817344,40.6306406 C18.08775,40.54275 18.2797031,40.4668125 18.4667344,40.3810312 C19.2324375,40.0287656 19.9995469,39.6765 20.7638438,39.3193125 C21.7960313,38.8369687 22.8232969,38.3440781 23.8568906,37.86525 C24.9488438,37.359 26.0478281,36.8668125 27.1397813,36.3619687 C27.8843906,36.0181406 28.6212656,35.66025 29.3644688,35.3157188 C29.5268906,35.2397813 29.5704844,35.1244687 29.5704844,34.9599375 C29.5711875,33.894 29.579625,32.8273594 29.5831406,31.7607188 C29.58525,30.9472031 29.5873594,30.1329844 29.5817344,29.3187656 C29.5803281,29.129625 29.6175938,29.0403281 29.8432969,29.04525 C30.625875,29.0628281 31.4098594,29.0600156 32.1931406,29.0515781 C32.3843906,29.0494687 32.4350156,29.1204844 32.4336094,29.2976719 C32.4216563,30.8417344 32.4118125,32.3857969 32.4082969,33.9305625 C32.4054844,34.8537656 32.4216563,35.7776719 32.4125156,36.700875 C32.4125156,36.8014219 32.3316563,36.9511875 32.245875,36.993375 C31.6165781,37.3041562 30.9753281,37.5910313 30.3404063,37.8898594 C29.6063438,38.2350937 28.8757969,38.5880625 28.1410313,38.9325938 C27.1791563,39.3847031 26.2137656,39.828375 25.2532969,40.2825937 C24.6823594,40.5532969 24.1219688,40.8457969 23.5524375,41.1157969 C22.8816563,41.4329062 22.2031406,41.7338437 21.53025,42.0474375 C20.8004063,42.3863438 20.0761875,42.7372031 19.3449375,43.0718906 C18.7564219,43.3404844 18.1587656,43.5886875 17.5681406,43.8537656 C17.1975938,44.0211094 16.8361875,44.2074375 16.4649375,44.3726719 C16.3953281,44.4036094 16.28775,44.4022031 16.2188438,44.3705625 C15.6085313,44.092125 15.0038438,43.8017344 14.3963438,43.5176719 C13.7185313,43.2005625 13.0393125,42.8862656 12.3607969,42.5698594 C11.8313438,42.3230625 11.3004844,42.0797812 10.7738438,41.8266562 C9.87314063,41.3935312 8.97876563,40.9491562 8.07454688,40.5230625 C7.4255625,40.2172031 6.76251563,39.9415781 6.112125,39.6385312 C5.56228125,39.3818906 5.0236875,39.1013437 4.47595313,38.8397812 C3.8424375,38.5360313 3.20329688,38.2428281 2.56907813,37.9404844 C1.91376563,37.6282969 1.27110938,37.2865781 0.603140625,37.004625 C0.28603125,36.8710313 0.194625,36.6938437 0.198043784,36.369 C0.216421875,34.7848594 0.2143125,33.2007188 0.220640625,31.615875 C0.223453125,30.8494687 0.234,30.0830625 0.227671875,29.3159531 C0.226265625,29.1162656 0.29446875,29.0635312 0.487828125,29.0670469 C1.24790625,29.0804062 2.00798438,29.0782969 2.7680625,29.0818125 C3.13017188,29.0832188 3.13509375,29.0832188 3.13509375,29.4375937 C3.13579688,30.4965 3.13298438,31.5554062 3.12946875,32.6136094 C3.12665625,33.3905625 3.12454688,34.1675156 3.11259375,34.9437656 C3.10978125,35.1378281 3.15829688,35.260875 3.3530625,35.3438437 C3.74751563,35.5111875 4.13001563,35.7073594 4.51814063,35.8894687 C5.18329688,36.2009531 5.84704688,36.5124375 6.51360938,36.8197031 C6.8968125,36.9961875 7.2849375,37.1628281 7.66884375,37.3386094 C8.19407813,37.5804844 8.71579688,37.8286875 9.24032813,38.0705625 C9.729,38.2962656 10.2211875,38.5149375 10.7098594,38.7420469 C11.579625,39.1449375 12.4465781,39.5534531 13.3163438,39.9556406 C13.8057188,40.1820469 14.2993125,40.4000156 14.7915,40.6200938 C14.8111875,40.6285313 14.8372031,40.6215 14.8857188,40.6215 C14.8990781,40.4098594 14.9229844,40.2024375 14.9236875,39.9943125 C14.9257969,38.7005625 14.9229844,37.4068125 14.9201719,36.1130625 C14.9187656,35.2109531 14.909625,34.31025 14.9110313,33.4088437 C14.9131406,31.8886875 14.9215781,30.3692344 14.9279063,28.8490781 C14.9335313,27.5482969 14.93775,26.2461094 14.9468906,24.9453281 C14.9475938,24.7744687 14.9025938,24.6886875 14.707125,24.6886875 C13.3479844,24.6900937 11.9881406,24.6788437 10.6282969,24.6767344 C9.7936875,24.6753281 8.958375,24.6865781 8.12376563,24.6837656 C6.68376563,24.6788437 5.24376563,24.6654844 3.8030625,24.6591562 C2.7118125,24.6542344 1.6205625,24.6486094 0.528609375,24.6549375 C0.30571875,24.6563437 0.22134375,24.5888438 0.22275,24.3603281 C0.227671875,23.6241562 0.217828125,22.8872813 0.207984375,22.1504062 C0.205171875,21.9781406 0.250171875,21.8951719 0.4449375,21.895875 C1.78157813,21.9022031 3.11751563,21.9000938 4.45415625,21.8972812 C5.414625,21.8944688 6.37509375,21.8839219 7.33626563,21.8811094 C8.87259375,21.8782969 10.409625,21.879 11.9459531,21.8761875 C12.86775,21.8747812 13.7888438,21.8670469 14.7099375,21.86775 C14.8730625,21.8684531 14.9300156,21.8072813 14.9286094,21.6448594 C14.920875,20.5789219 14.9201719,19.5129844 14.9194688,18.4470469 C14.9187656,18.1812656 14.9194688,17.9154844 14.9342344,17.6504063 C14.943375,17.4774375 14.8800938,17.3979844 14.7078281,17.36775 C13.7325938,17.1947812 12.8234531,16.8347812 11.9318906,16.4100938 C11.0825156,16.0043906 10.3639219,15.4257188 9.66360938,14.8161094 C9.56517188,14.7303281 9.50189063,14.7373594 9.408375,14.82525 C8.34876563,15.8215781 7.11267188,16.524 5.73384375,16.9690781 C4.62642188,17.3269687 3.4880625,17.5062656 2.32017188,17.4197812 C1.75415625,17.3782969 1.18814063,17.3290781 0.624234375,17.2636875 C0.245953125,17.2200938 0.22696875,17.1814219 0.229078125,16.8066563 C0.231890625,16.0149375 0.23540625,15.2225156 0.240328125,14.4307969 C0.24103125,14.369625 0.250875,14.3084531 0.2593125,14.2191563" id="Fill-1"></path>
                </g>
            </g>
        </g>
    </g>
</svg>