<?xml version="1.0" encoding="UTF-8"?>
<svg width="40px" height="31px" viewBox="0 0 40 31" version="1.1" xmlns="http://www.w3.org/2000/svg" xmlns:xlink="http://www.w3.org/1999/xlink">
    <g id="Symbols" stroke="none" stroke-width="1" fill="none" fill-rule="evenodd">
        <g id="/g/MenuVideoPreview" transform="translate(-125.000000, -67.000000)" fill="#FFFFFF">
            <g id="Fill-1" transform="translate(125.000000, 67.109505)">
                <path d="M27.4999549,0 L12.5000448,0 C9.18442473,0 6.00488378,1.31718946 3.66089784,3.66089071 C1.31691269,6.00459196 0,9.18444652 0,12.50002 L0,17.49998 C0,20.8155935 1.31719229,23.995128 3.66089784,26.3391093 C6.00460379,28.6830905 9.18446472,30 12.5000448,30 L27.4999549,30 C30.8155751,30 33.995116,28.6828105 36.3391019,26.3391093 C38.6830879,23.995408 40,20.8155535 40,17.49998 L40,12.50002 C40,9.18440652 38.6828079,6.00487196 36.3391019,3.66089071 C33.995396,1.31690946 30.8155351,0 27.4999549,0 Z M25.5999663,15.9498724 L18.1000113,20.9498324 C17.9172004,21.0607675 17.7125136,21.129519 17.5000149,21.1498308 C17.2906401,21.1482668 17.0859374,21.0967072 16.9000185,20.999832 C16.4891009,20.8248334 16.2031427,20.4435965 16.149959,19.99984 L16.149959,9.99992 C16.145335,9.53428373 16.3984575,9.10460716 16.807819,8.88428893 C17.2171766,8.66397869 17.7140536,8.68897849 18.1000113,8.9499124 L25.5999663,13.9498724 C25.9452763,14.1873705 26.151523,14.5811074 26.151523,14.999864 C26.151523,15.4186207 25.9452763,15.8123375 25.5999663,16.0498556 L25.5999663,15.9498724 Z"></path>
            </g>
        </g>
    </g>
</svg>