<?xml version="1.0" encoding="UTF-8"?>
<svg width="16px" height="16px" viewBox="0 0 16 16" version="1.1" xmlns="http://www.w3.org/2000/svg" xmlns:xlink="http://www.w3.org/1999/xlink">
    <title>i/account</title>
    <g id="Symbols" stroke="none" stroke-width="1" fill="none" fill-rule="evenodd">
        <g id="/g/desktopheaderprofile" transform="translate(-1204.000000, -31.000000)" fill="#FFFFFF" fill-rule="nonzero">
            <g id="np_profile_1069814_FFFFFF" transform="translate(1204.000000, 31.000000)">
                <path d="M8,-1.26318709e-15 C5.8784,-1.26318709e-15 3.84373333,0.843057778 2.34311111,2.34311111 C0.843111111,3.84380444 0,5.87857778 0,8 C0,10.1214222 0.843057778,12.1562667 2.34311111,13.6568889 C3.84380444,15.1568889 5.87857778,16 8,16 C10.1214222,16 12.1562667,15.1569422 13.6568889,13.6568889 C15.1568889,12.1561956 16,10.1214222 16,8 C16,5.87857778 15.1569422,3.84373333 13.6568889,2.34311111 C12.1561956,0.843111111 10.1214222,-1.26318709e-15 8,-1.26318709e-15 Z M3.59093333,13.4327111 C4.72634667,12.2014578 6.32426667,11.5008 7.99928889,11.5008 C9.6736,11.5008 11.2721778,12.2014933 12.4069333,13.4327111 C11.1617956,14.4465956 9.6048,15.0007644 7.99928889,15.0007644 C6.39303111,15.0007644 4.83608889,14.4465956 3.59093333,13.4327111 Z M13.1374222,12.7486756 C11.8138133,11.3153422 9.95128889,10.5006756 8.00053333,10.5006756 C6.04977778,10.5006756 4.18808889,11.3152533 2.86364444,12.7486756 C1.62336,11.4090844 0.955377778,9.63756444 1.00177778,7.81249778 C1.04899911,5.98743111 1.80663111,4.25285333 3.11431111,2.97854222 C4.42126222,1.70423111 6.17475556,0.990986667 8.00035556,0.990986667 C9.82613333,0.990986667 11.5795556,1.70417778 12.8871111,2.97854222 C14.1947556,4.25285333 14.9523556,5.98760889 14.9989333,7.81249778 C15.0461547,9.63756444 14.3780978,11.4089422 13.1370667,12.7486756 L13.1374222,12.7486756 Z" id="Shape"></path>
                <path d="M8,3.00071111 C7.07152,3.00071111 6.18133333,3.36945778 5.52426667,4.0264 C4.86801778,4.68264889 4.49927111,5.57361778 4.49927111,6.50213333 C4.49996551,7.43061333 4.86871111,8.3208 5.52565333,8.97715556 C6.18190222,9.63340444 7.07287111,10.0021511 8.00138667,10.0021511 C8.92986667,10.0014565 9.82005333,9.63201778 10.4764089,8.97576889 C11.1326578,8.31882667 11.5007111,7.42785778 11.5007111,6.49932444 C11.5000167,5.57153778 11.1312711,4.68119111 10.4743289,4.02572444 C9.81808,3.36947556 8.92780444,3.00071111 8.00001778,3.00071111 L8,3.00071111 Z M8,9.00071111 C6.98888889,9.00071111 6.07786667,8.39237333 5.69102222,7.45834667 C5.30417778,6.52432 5.51741156,5.44928 6.232,4.73479111 C6.94657778,4.01952 8.02151111,3.80561778 8.95555556,4.19173333 C9.8896,4.57784889 10.4986133,5.48896 10.4993067,6.49928889 C10.4986123,7.87984 9.38055111,8.99866667 7.99992889,9.00062222 L8,9.00071111 Z" id="Shape"></path>
            </g>
        </g>
    </g>
</svg>