<?xml version="1.0" encoding="UTF-8"?>
<svg width="72px" height="72px" viewBox="0 0 72 72" version="1.1" xmlns="http://www.w3.org/2000/svg" xmlns:xlink="http://www.w3.org/1999/xlink">
    <title>Group</title>
    <g id="Page-1" stroke="none" stroke-width="1" fill="none" fill-rule="evenodd">
        <g id="Group">
            <rect id="Rectangle" fill="#000000" x="0" y="0" width="72" height="72"></rect>
            <g id="footer-logo" transform="translate(17.000000, 10.000000)" fill="#FFFFFF" fill-rule="nonzero">
                <path d="M0.0722949589,16.654877 C0.22223958,16.689467 0.361414699,16.7026441 0.484849774,16.7528819 C1.39528701,17.1193712 2.34963068,17.1729033 3.31060174,17.117724 C3.83002315,17.0872519 4.35524354,17.0238369 4.85975335,16.9003012 C5.31041564,16.7907662 5.74036734,16.591462 6.16949062,16.406982 C6.48014937,16.2735635 6.79495023,16.1302621 7.07247204,15.9391936 C7.51402168,15.6344723 7.95225761,15.3141032 8.34327342,14.9492611 C8.73180396,14.5877133 9.05488906,14.1586328 9.41691005,13.76826 C9.47655653,13.704845 9.58756525,13.6570779 9.67537812,13.6562543 C10.5485363,13.6430771 11.4225229,13.6364886 12.2956811,13.6439008 C12.4042046,13.6447243 12.5392375,13.71061 12.6154525,13.7904964 C13.025522,14.2212242 13.4007978,14.6857183 13.8249505,15.1016217 C14.4968019,15.7604787 15.3293673,16.1796764 16.1859571,16.5445184 C16.5438359,16.6968791 16.9265674,16.793237 17.3184118,16.9208904 C17.3490634,12.5436097 17.379715,8.23715596 17.4095383,3.89199442 C17.2637358,3.91340727 17.1659819,3.91670155 17.0740269,3.94305583 C15.8015686,4.30460357 14.5291104,4.66944561 13.2574806,5.03593478 C13.1605551,5.0639362 13.070257,5.12158618 12.9725029,5.13805761 C12.7604266,5.17182403 12.7190055,5.29865399 12.7198339,5.48972251 C12.723976,6.31658797 12.7090644,7.14345343 12.718177,7.96949532 C12.7206623,8.21409597 12.6618442,8.30551236 12.3926066,8.29727665 C11.7315249,8.27833452 11.0696146,8.29810023 10.4077043,8.29974737 C10.0531392,8.30057093 9.69857398,8.29480594 9.31087186,8.29233522 C9.3158424,7.59065258 9.32412663,6.94909063 9.32412663,6.30752868 C9.32495506,5.20559044 9.32495506,4.10365221 9.31252871,3.00171397 C9.31087186,2.80405689 9.41111109,2.75628976 9.56602624,2.71099335 C10.573389,2.42027272 11.5782665,2.12131638 12.5848008,1.82894861 C13.9011655,1.44763516 15.2183586,1.07043955 16.5347232,0.69077324 C17.3026717,0.469232593 18.0681348,0.239456234 18.839397,0.0319162969 C18.9992827,-0.0109094044 19.1914769,-0.0109094044 19.3505341,0.0335634393 C20.9535333,0.480762589 22.5515619,0.943609592 24.1512473,1.39657375 C25.1246447,1.67247009 26.1013558,1.93601286 27.0747532,2.21026207 C27.6488505,2.37168202 28.2212911,2.53474912 28.7879326,2.72169977 C28.8674613,2.74805405 28.9445046,2.91194472 28.9461615,3.01406754 C28.9668721,3.74704589 28.9718426,4.48084781 28.9726711,5.21464973 C28.9743279,6.17905158 28.9677005,7.14345343 28.96273,8.10703171 C28.96273,8.1786824 28.9503036,8.2503331 28.9420193,8.35575021 C27.8269616,8.3475145 26.7218448,8.34010235 25.5719932,8.33186664 C25.5761354,7.82701751 25.5794491,7.31475624 25.5827628,6.80331853 C25.5860765,6.36188438 25.5835912,5.9212738 25.5935323,5.48066322 C25.596846,5.3299497 25.5562533,5.25171043 25.3988528,5.20641402 C24.6499581,4.99228551 23.9052055,4.76415629 23.1587961,4.54261565 C22.4993712,4.34742927 21.8374609,4.15883148 21.1796928,3.95788011 C20.8690341,3.86316942 20.8383824,3.87552299 20.8383824,4.18436218 C20.8367255,7.18627913 20.8342403,10.1881961 20.8325834,13.1901131 C20.8309267,14.300287 20.827613,15.410461 20.827613,16.5206349 C20.827613,16.6293463 20.8416961,16.7380577 20.8524656,16.910184 C21.1299874,16.8492397 21.4033671,16.8360627 21.6320119,16.7289984 C22.3552256,16.3921578 23.0817528,16.05367 23.7685157,15.6492965 C24.3740932,15.2935138 24.8388386,14.7614869 25.2754178,14.2129884 C25.4054802,14.0490978 25.5140037,13.8473228 25.6821736,13.7410821 C25.8288045,13.6488422 26.045023,13.6447243 26.2314182,13.6422536 C26.9827982,13.6323707 27.7366635,13.6447243 28.4897002,13.6323707 C28.7050903,13.6290765 28.8169275,13.7015507 28.9594163,13.8736771 C29.3670006,14.3669962 29.8052365,14.838079 30.2691535,15.2803366 C30.9136668,15.8963679 31.7081248,16.2883878 32.5315777,16.6186399 C33.348403,16.9472447 34.2099633,17.083134 35.0814646,17.1564319 C36.0573473,17.2379653 36.9876666,16.9801876 38,16.7257041 C37.9983431,17.002424 37.9966863,17.2536132 37.994201,17.5031553 C37.988402,18.3028429 37.9734905,19.1017069 37.9784609,19.900571 C37.9809462,20.1608195 37.9105303,20.2720016 37.6296947,20.3387109 C36.4839853,20.6096658 35.3250211,20.5709579 34.1718559,20.4943658 C33.2083995,20.4309509 32.2913348,20.1188174 31.3692997,19.8272731 C30.0877288,19.4212525 29,18.7113342 27.9495682,17.9182352 C27.7615161,17.7749338 27.5933462,17.6019838 27.4235194,17.4356225 C27.3009127,17.3170283 27.2064725,17.3112632 27.0747532,17.4356225 C26.2960353,18.1677773 25.4162497,18.750042 24.4660482,19.2483026 C23.3849557,19.8140961 22.2351041,20.1344652 21.0504588,20.3650652 C20.8955436,20.3947137 20.8168434,20.4630702 20.8185003,20.6409615 C20.827613,22.0649161 20.8267844,23.4888706 20.8300981,24.9120016 C20.8300981,24.9490623 20.8350687,24.9861231 20.8342403,25.0223602 C20.8234708,25.6243907 20.8234708,25.6136843 21.4439599,25.6145078 C23.7494619,25.6178021 26.0541357,25.6318028 28.3588093,25.6359207 C29.8334028,25.639215 31.3071679,25.6285086 32.7801047,25.6318028 C34.3565942,25.6350972 35.9322554,25.64498 37.5070881,25.6573335 C37.9776325,25.6614513 37.9751472,25.6705106 37.9726621,26.1440641 C37.9685199,26.9799889 37.9685199,27.8159135 37.9652062,28.6518383 C37.9652062,28.7416075 37.9560936,28.8313769 37.9494662,28.9730311 C37.3919372,28.9689132 36.8509768,28.9631483 36.309188,28.9615011 C34.73187,28.9557362 33.154552,28.9507947 31.5764055,28.9475004 C29.5359989,28.9442061 27.4964207,28.9409118 25.4576709,28.9409118 C24.0601207,28.9409118 22.6625705,28.9458532 21.264192,28.9499711 C20.8267844,28.9507947 20.8242993,28.9532654 20.8234708,29.3914053 C20.8168434,33.2300705 20.8110445,37.0695593 20.8027602,40.9082247 C20.8002749,42.4779513 20.7919907,44.0485015 20.7895054,45.6182281 C20.7878486,46.2054345 20.7961328,46.7934642 20.8027602,47.3806705 C20.8027602,47.4424383 20.8209856,47.502559 20.8350687,47.5906811 C21.0777967,47.4877348 21.3039563,47.3987891 21.5243169,47.2983133 C22.4264699,46.8857042 23.3302798,46.4730951 24.230776,46.0547209 C25.4469014,45.489751 26.6572279,44.9124277 27.8750101,44.3515757 C29.1615516,43.7586045 30.4563772,43.1821046 31.7429187,42.5907805 C32.6202189,42.1880542 33.4884065,41.7688565 34.3640501,41.3653067 C34.5554158,41.276361 34.6067781,41.1412952 34.6067781,40.9485796 C34.6076065,39.7000457 34.6175475,38.4506883 34.6216896,37.2013308 C34.6241749,36.2484589 34.6266602,35.2947635 34.6200328,34.341068 C34.6183759,34.1195274 34.6622825,34.0149338 34.9282063,34.0206989 C35.8502414,34.0412881 36.7739335,34.0379938 37.696797,34.028111 C37.9221281,34.0256402 37.9817746,34.108821 37.9801178,34.3163609 C37.9660347,36.1249232 37.9544367,37.9334856 37.9502946,39.7428714 C37.9469809,40.8242203 37.9660347,41.9063929 37.9552651,42.9877418 C37.9552651,43.1055126 37.8599965,43.2809332 37.7589288,43.3303475 C37.0174899,43.6943659 36.2619678,44.030383 35.5139016,44.3804007 C34.6490277,44.7847741 33.7882958,45.1982069 32.9225935,45.6017568 C31.7893104,46.131313 30.6518851,46.6509865 29.5202589,47.1830134 C28.8475791,47.5000884 28.1873258,47.842694 27.5163028,48.1589453 C26.725987,48.5303758 25.9265584,48.8828643 25.1337573,49.2501771 C24.273854,49.6471385 23.4205779,50.0581004 22.5590176,50.4501203 C21.8656274,50.7647245 21.1614675,51.0554451 20.4655919,51.3659314 C20.0290129,51.5619414 19.6032032,51.7801878 19.1657957,51.973727 C19.0837818,52.0099641 18.957033,52.0083169 18.8758476,51.9712563 C18.1567762,51.6451221 17.4443321,51.3049872 16.7285744,50.9722645 C15.9299743,50.6008338 15.1297173,50.2326975 14.3302888,49.8620905 C13.7064861,49.573017 13.0810264,49.2880613 12.4605374,48.9915757 C11.3993271,48.4842558 10.3455726,47.9637589 9.2802202,47.4646748 C8.51558547,47.1064213 7.73438228,46.7835814 6.9680907,46.4286222 C6.32026366,46.1280187 5.6856914,45.7994138 5.04034963,45.4930453 C4.29394021,45.1372627 3.54090342,44.7938334 2.79366558,44.4396979 C2.02157504,44.0740323 1.26439613,43.6737766 0.477393964,43.3435246 C0.103775045,43.1870461 -0.0039199868,42.9795061 0,42.5990163 C0.0217611362,40.7435104 0.0192758663,38.8880046 0.0267316762,37.0316751 C0.0300453695,36.1339824 0.0424717193,35.2362899 0.0350159094,34.3377737 C0.0333590628,34.1038795 0.113716125,34.0421116 0.341532539,34.0462296 C1.23705815,34.0618774 2.13258377,34.0594067 3.02810938,34.0635246 C3.45474739,34.0651718 3.46054635,34.0651718 3.46054635,34.4802515 C3.46137478,35.7205498 3.45806109,36.9608479 3.45391896,38.2003226 C3.45060527,39.1103687 3.44812001,40.0204149 3.4340368,40.9296374 C3.43072311,41.1569431 3.48788433,41.3010681 3.71735758,41.3982494 C4.18210307,41.5942594 4.63276536,41.8240358 5.09005503,42.0373407 C5.8737435,42.4021827 6.65577512,42.7670248 7.44112043,43.1269253 C7.89261113,43.3336417 8.34990081,43.5288281 8.80221994,43.7347209 C9.42105217,44.0180294 10.0357423,44.30875 10.6537461,44.5920585 C11.2295003,44.8564248 11.8093966,45.1125555 12.3851508,45.378569 C13.4099105,45.8504753 14.4313564,46.3289701 15.4561161,46.8000528 C16.0326988,47.0652428 16.6142519,47.3205498 17.1941482,47.5783277 C17.2173441,47.5882105 17.2479957,47.5799747 17.305157,47.5799747 C17.3208969,47.3320798 17.3490634,47.0891263 17.3498918,46.8453493 C17.3523771,45.3299783 17.3490634,43.8146073 17.3457497,42.2992363 C17.3440928,41.2425945 17.3333233,40.1875998 17.3349802,39.1317815 C17.3374654,37.3512207 17.3474065,35.5714834 17.3548624,33.7909225 C17.3614898,32.2673158 17.3664603,30.742062 17.3772297,29.2184553 C17.3780582,29.0183275 17.3250391,28.9178518 17.0947374,28.9178518 C15.4933952,28.9194989 13.8912244,28.9063218 12.2890537,28.9038511 C11.3057152,28.9022039 10.3215483,28.9153811 9.33820984,28.9120868 C7.64159887,28.9063218 5.9449879,28.890674 4.24754851,28.8832618 C2.96183551,28.8774969 1.67612251,28.8709083 0.389581092,28.8783204 C0.126970898,28.8799675 0.0275600995,28.8009048 0.0292169461,28.5332441 C0.0350159094,27.670965 0.0234179829,26.8078625 0.0118200563,25.9447598 C0.00850636305,25.7429849 0.0615254557,25.6458036 0.290998716,25.6466271 C1.86583146,25.6540392 3.43983577,25.6515686 5.01466851,25.6482742 C6.14629477,25.64498 7.27792103,25.6326264 8.41037571,25.6293321 C10.2204807,25.6260379 12.0314141,25.6268614 13.841519,25.6235671 C14.927582,25.6219199 16.0128166,25.6128607 17.0980511,25.6136843 C17.2902453,25.6145078 17.3573476,25.5428572 17.3556908,25.3526122 C17.3465781,24.1040783 17.3457497,22.8555444 17.3449213,21.6070105 C17.3440928,21.2957005 17.3449213,20.9843907 17.3623182,20.6739044 C17.3730876,20.4713058 17.2985296,20.3782423 17.0955658,20.3428287 C15.9465427,20.1402301 14.8753913,19.7185617 13.8249505,19.2211248 C12.8242151,18.7459242 11.9775666,18.0681252 11.1524569,17.3540889 C11.0364776,17.2536132 10.9619195,17.261849 10.8517392,17.3647953 C9.6033053,18.5317957 8.1469371,19.3545433 6.52239895,19.8758638 C5.21763223,20.2950615 3.87641486,20.5050722 2.50040373,20.4037729 C1.83352294,20.3551823 1.16664217,20.2975323 0.502246664,20.2209402 C0.0565549158,20.1698788 0.0341874861,20.1245824 0.036672756,19.685619 C0.0399864493,18.7582778 0.044128566,17.830113 0.0499275292,16.9027719 C0.0507559525,16.8311212 0.0623538791,16.7594705 0.0722949589,16.654877" id="Fill-1"></path>
            </g>
        </g>
    </g>
</svg>