<?xml version="1.0" encoding="UTF-8"?>
<svg width="121px" height="121px" viewBox="0 0 121 121" version="1.1" xmlns="http://www.w3.org/2000/svg" xmlns:xlink="http://www.w3.org/1999/xlink">
    <!-- Generator: Sketch 51.2 (57519) - http://www.bohemiancoding.com/sketch -->
    <title>Group 5</title>
    <desc>Created with Sketch.</desc>
    <defs>
        <polygon id="path-1" points="0 0 40 0 40 71 0 71"></polygon>
    </defs>
    <g id="Welcome" stroke="none" stroke-width="1" fill="none" fill-rule="evenodd">
        <g id="Home" transform="translate(-1206.000000, -1139.000000)">
            <g id="Group-5" transform="translate(1206.000000, 1139.000000)">
                <circle id="Oval-2" fill="#445FAB" cx="60.5" cy="60.5" r="60.5"></circle>
                <g id="Group-3" transform="translate(42.000000, 26.000000)">
                    <mask id="mask-2" fill="white">
                        <use xlink:href="#path-1"></use>
                    </mask>
                    <g id="Clip-2"></g>
                    <path d="M4.96649761,52.0626133 C4.96649761,51.8157874 5.21095637,51.6146409 5.51233955,51.6146409 L10.9179458,51.6146409 C11.2194871,51.6146409 11.4637878,51.8157874 11.4637878,52.0626133 L11.4637878,61.6319587 C11.4637878,61.8790995 11.2194871,62.0800886 10.9179458,62.0800886 L5.51233955,62.0800886 C5.21095637,62.0800886 4.96649761,61.8790995 4.96649761,61.6319587 L4.96649761,52.0626133 Z M4.96649761,36.6203247 C4.96649761,36.3734989 5.21095637,36.1728249 5.51233955,36.1728249 L10.9179458,36.1728249 C11.2194871,36.1728249 11.4637878,36.3734989 11.4637878,36.6203247 L11.4637878,46.1896701 C11.4637878,46.436811 11.2194871,46.6379575 10.9179458,46.6379575 L5.51233955,46.6379575 C5.21095637,46.6379575 4.96649761,46.436811 4.96649761,46.1896701 L4.96649761,36.6203247 Z M4.96649761,21.1780362 C4.96649761,20.9310528 5.21095637,20.7306939 5.51233955,20.7306939 L10.9179458,20.7306939 C11.2194871,20.7306939 11.4637878,20.9310528 11.4637878,21.1780362 L11.4637878,30.7476966 C11.4637878,30.99531 11.2194871,31.1955115 10.9179458,31.1955115 L5.51233955,31.1955115 C5.21095637,31.1955115 4.96649761,30.99531 4.96649761,30.7476966 L4.96649761,21.1780362 Z M4.96649761,5.73637773 C4.96649761,5.48939437 5.21095637,5.28840535 5.51233955,5.28840535 L10.9179458,5.28840535 C11.2194871,5.28840535 11.4637878,5.48939437 11.4637878,5.73637773 L11.4637878,15.3060381 C11.4637878,15.553179 11.2194871,15.753538 10.9179458,15.753538 L5.51233955,15.753538 C5.21095637,15.753538 4.96649761,15.553179 4.96649761,15.3060381 L4.96649761,5.73637773 Z M16.7512759,52.0626133 C16.7512759,51.8157874 16.9958927,51.6146409 17.2971178,51.6146409 L22.7028822,51.6146409 C23.0045816,51.6146409 23.2490404,51.8157874 23.2490404,52.0626133 L23.2490404,61.6319587 C23.2490404,61.8790995 23.0045816,62.0800886 22.7028822,62.0800886 L17.2971178,62.0800886 C16.9958927,62.0800886 16.7512759,61.8790995 16.7512759,61.6319587 L16.7512759,52.0626133 Z M16.7512759,36.6203247 C16.7512759,36.3734989 16.9958927,36.1728249 17.2971178,36.1728249 L22.7028822,36.1728249 C23.0045816,36.1728249 23.2490404,36.3734989 23.2490404,36.6203247 L23.2490404,46.1896701 C23.2490404,46.436811 23.0045816,46.6379575 22.7028822,46.6379575 L17.2971178,46.6379575 C16.9958927,46.6379575 16.7512759,46.436811 16.7512759,46.1896701 L16.7512759,36.6203247 Z M16.7512759,21.1780362 C16.7512759,20.9310528 16.9958927,20.7306939 17.2971178,20.7306939 L22.7028822,20.7306939 C23.0045816,20.7306939 23.2490404,20.9310528 23.2490404,21.1780362 L23.2490404,30.7476966 C23.2490404,30.99531 23.0045816,31.1955115 22.7028822,31.1955115 L17.2971178,31.1955115 C16.9958927,31.1955115 16.7512759,30.99531 16.7512759,30.7476966 L16.7512759,21.1780362 Z M16.7512759,5.73637773 C16.7512759,5.48939437 16.9958927,5.28840535 17.2971178,5.28840535 L22.7028822,5.28840535 C23.0045816,5.28840535 23.2490404,5.48939437 23.2490404,5.73637773 L23.2490404,15.3060381 C23.2490404,15.553179 23.0045816,15.753538 22.7028822,15.753538 L17.2971178,15.753538 C16.9958927,15.753538 16.7512759,15.553179 16.7512759,15.3060381 L16.7512759,5.73637773 Z M28.5366866,52.0626133 C28.5366866,51.8157874 28.780671,51.6146409 29.0820542,51.6146409 L34.4878186,51.6146409 C34.789518,51.6146409 35.0339768,51.8157874 35.0339768,52.0626133 L35.0339768,61.6319587 C35.0339768,61.8790995 34.789518,62.0800886 34.4878186,62.0800886 L29.0820542,62.0800886 C28.780671,62.0800886 28.5366866,61.8790995 28.5366866,61.6319587 L28.5366866,52.0626133 Z M28.5366866,36.6203247 C28.5366866,36.3734989 28.780671,36.1728249 29.0820542,36.1728249 L34.4878186,36.1728249 C34.789518,36.1728249 35.0339768,36.3734989 35.0339768,36.6203247 L35.0339768,46.1896701 C35.0339768,46.436811 34.789518,46.6379575 34.4878186,46.6379575 L29.0820542,46.6379575 C28.780671,46.6379575 28.5366866,46.436811 28.5366866,46.1896701 L28.5366866,36.6203247 Z M29.0820542,31.1955115 C28.780671,31.1955115 28.5366866,30.99531 28.5366866,30.7476966 L28.5366866,21.1780362 C28.5366866,20.9310528 28.780671,20.7306939 29.0820542,20.7306939 L34.4878186,20.7306939 C34.789518,20.7306939 35.0339768,20.9310528 35.0339768,21.1780362 L35.0339768,30.7476966 L29.0820542,31.1955115 Z M28.5366866,5.73637773 C28.5366866,5.48939437 28.780671,5.28840535 29.0820542,5.28840535 L34.4878186,5.28840535 C34.789518,5.28840535 35.0339768,5.48939437 35.0339768,5.73637773 L35.0339768,15.3060381 C35.0339768,15.553179 34.789518,15.753538 34.4878186,15.753538 L29.0820542,15.753538 C28.780671,15.753538 28.5366866,15.553179 28.5366866,15.3060381 L28.5366866,5.73637773 Z M40,71 L40,3.3473492 C40,1.4987543 38.4957722,0 36.6401942,0 L3.36028019,0 C1.50454407,0 0,1.4987543 0,3.3473492 L0,71 L40,71 Z" id="Fill-1" fill="#FFFFFF" mask="url(#mask-2)"></path>
                </g>
            </g>
        </g>
    </g>
</svg>