<?xml version="1.0" encoding="UTF-8"?>
<svg width="18px" height="18px" viewBox="0 0 18 18" version="1.1" xmlns="http://www.w3.org/2000/svg" xmlns:xlink="http://www.w3.org/1999/xlink">
    <title>Shape Copy</title>
    <g id="Symbols" stroke="none" stroke-width="1" fill="none" fill-rule="evenodd">
        <g id="/g/footer-desktop" transform="translate(-198.000000, -59.000000)" fill="#FFFFFF">
            <g id="Group-2" transform="translate(198.000000, 59.000000)">
                <path d="M9.00084375,0 C6.55656829,0 6.2498151,0.0106875012 5.28980513,0.0543750149 C4.33167013,0.0982500079 3.67766331,0.249937522 3.10540736,0.472500029 C2.51346369,0.702375016 2.01133344,1.00987498 1.51107823,1.51031252 C1.010448,2.01056252 0.702944831,2.51268749 0.472317413,3.10443751 C0.249190088,3.67687503 0.0973135125,4.33106252 0.0541880438,5.28881252 C0.0112501125,6.2488125 0,6.55575002 0,9 C0,11.44425 0.0108750938,11.7500625 0.0543755812,12.7100625 C0.0984385125,13.6681875 0.250127606,14.3221875 0.47250495,14.8944375 C0.702569812,15.486375 1.01007304,15.9885 1.51051573,16.48875 C2.01058346,16.989375 2.51271366,17.297625 3.10428236,17.5275 C3.67691333,17.7500625 4.33110763,17.90175 5.28905509,17.945625 C6.24906512,17.9893125 6.55563077,18 8.99971875,18 C11.4441817,18 11.7499974,17.9893125 12.7100074,17.945625 C13.6681424,17.90175 14.3228992,17.7500625 14.8955302,17.5275 C15.4872863,17.297625 15.9886666,16.989375 16.4887342,16.48875 C16.9893645,15.9885 17.2968677,15.486375 17.527495,14.894625 C17.7487474,14.3221875 17.900624,13.668 17.9456244,12.71025 C17.9887499,11.75025 18,11.44425 18,9 C18,6.55575002 17.9887499,6.24900003 17.9456244,5.289 C17.900624,4.33087498 17.7487474,3.67687503 17.527495,3.10462499 C17.2968677,2.51268749 16.9893645,2.01056252 16.4887342,1.51031252 C15.9881041,1.0096875 15.4874738,0.70218748 14.8949677,0.472500029 C14.3212117,0.249937522 13.6668299,0.0982500079 12.7086949,0.0543750149 C11.7486849,0.0106875012 11.4430567,0 8.99803125,0 L9.00084375,0 Z M8.19346033,1.62187502 C8.43308786,1.6215 8.70046566,1.62187502 9.00084375,1.62187502 C11.4038688,1.62187502 11.6886842,1.63050002 12.6376316,1.67362499 C13.5151408,1.71375 13.9913957,1.86037501 14.308649,1.98356252 C14.7286535,2.14668751 15.028094,2.34168752 15.3429098,2.6566875 C15.6579131,2.97168749 15.8529151,3.27168749 16.0164168,3.69168752 C16.1396056,4.00856252 16.2864196,4.48481253 16.3263576,5.3623125 C16.369483,6.31106249 16.3788581,6.59606252 16.3788581,8.99793753 C16.3788581,11.3998125 16.369483,11.6848125 16.3263576,12.6335625 C16.2862322,13.5110625 16.1396056,13.9873125 16.0164168,14.3041875 C15.8532901,14.7241875 15.6579131,15.02325 15.3429098,15.3380625 C15.0279065,15.6530625 14.7288409,15.8480625 14.308649,16.0111875 C13.9917707,16.1349375 13.5151408,16.2811875 12.6376316,16.3213125 C11.6888718,16.3644375 11.4038688,16.3738125 9.00084375,16.3738125 C6.59763124,16.3738125 6.31281577,16.3644375 5.36405586,16.3213125 C4.48654674,16.2808125 4.01029178,16.1341875 3.69285098,16.011 C3.27284657,15.847875 2.97284349,15.652875 2.65784018,15.337875 C2.34283691,15.022875 2.14783487,14.723625 1.98433316,14.3034375 C1.86114437,13.9865625 1.71433035,13.5103125 1.67439246,12.6328125 C1.63126699,11.6840625 1.62264189,11.3990625 1.62264189,8.9956875 C1.62264189,6.59231248 1.63126699,6.30881251 1.67439246,5.36006253 C1.71451789,4.4825625 1.86114437,4.00631249 1.98433316,3.68906253 C2.14745985,3.2690625 2.34283691,2.96906249 2.65784018,2.65406251 C2.97284349,2.33906247 3.27284657,2.14406252 3.69285098,1.98056251 C4.01010429,1.85681251 4.48654674,1.71056251 5.36405586,1.67025002 C6.19431452,1.63275 6.51606789,1.6215 8.19346033,1.61962499 L8.19346033,1.62187502 Z M13.8050188,3.11625 C13.2087626,3.11625 12.7250075,3.59943753 12.7250075,4.19587498 C12.7250075,4.79212502 13.2087626,5.27587499 13.8050188,5.27587499 C14.401275,5.27587499 14.88503,4.79212502 14.88503,4.19587498 C14.88503,3.59962501 14.401275,3.11587498 13.8050188,3.11587498 L13.8050188,3.11625 Z M9.00084375,4.378125 C6.44837968,4.378125 4.37892064,6.44756249 4.37892064,9.00000003 C4.37892064,11.5524375 6.44837968,13.6209375 9.00084375,13.6209375 C11.5533079,13.6209375 13.6220169,11.5524375 13.6220169,9.00000003 C13.6220169,6.44756249 11.5531203,4.378125 9.00065627,4.378125 L9.00084375,4.378125 Z M9.00084375,6.00000002 C10.657611,6.00000002 12.000875,7.3430625 12.000875,9.00000002 C12.000875,10.65675 10.657611,12 9.00084375,12 C7.34388902,12 6.00081249,10.65675 6.00081249,9.00000002 C6.00081249,7.3430625 7.34388902,6.00000002 9.00084375,6.00000002 L9.00084375,6.00000002 Z" id="Shape-Copy"></path>
            </g>
        </g>
    </g>
</svg>