<?xml version="1.0" encoding="UTF-8"?>
<svg width="16px" height="15px" viewBox="0 0 16 15" version="1.1" xmlns="http://www.w3.org/2000/svg" xmlns:xlink="http://www.w3.org/1999/xlink">
    <title>linkedin</title>
    <defs>
        <polygon id="path-1" points="0 0.0038232 3.60762498 0.0038232 3.60762498 14.3046 0 14.3046"></polygon>
        <polygon id="path-3" points="0.00352755 0.00636984 9.79352775 0.00636984 9.79352775 9.882 0.00352755 9.882"></polygon>
    </defs>
    <g id="Page-1" stroke="none" stroke-width="1" fill="none" fill-rule="evenodd">
        <g id="linkedin">
            <g id="Fill-1-Clipped" transform="translate(0.000000, 0.004293)">
                <mask id="mask-2" fill="white">
                    <use xlink:href="#path-1"></use>
                </mask>
                <g id="path-2"></g>
                <path d="M1.79321688,3.33844092 C2.91135708,3.33844092 3.60762498,2.59686162 3.60762498,1.67100732 C3.58669458,0.72447372 2.91135708,0.00381672 1.81440648,0.00381672 C0.71716428,0.00381672 -1.62000006e-06,0.72447372 -1.62000006e-06,1.67100732 C-1.62000006e-06,2.59686162 0.69598278,3.33844092 1.77228648,3.33844092 L1.79321688,3.33844092 Z M0.18961128,14.3046016 L3.39652278,14.3046016 L3.39652278,4.65538752 L0.18961128,4.65538752 L0.18961128,14.3046016 Z" id="Fill-1" fill="#111111" fill-rule="nonzero" mask="url(#mask-2)"></path>
            </g>
            <g id="Fill-4-Clipped" transform="translate(5.167800, 4.426893)">
                <mask id="mask-4" fill="white">
                    <use xlink:href="#path-3"></use>
                </mask>
                <g id="path-4"></g>
                <path d="M0.00352755,9.88200324 L3.21071445,9.88200324 L3.21071445,4.49344584 C3.21071445,4.20511824 3.23164485,3.91682304 3.31641945,3.71102634 C3.54811995,3.13467084 4.07596455,2.53782234 4.96184535,2.53782234 C6.12263205,2.53782234 6.58663245,3.42299844 6.58663245,4.71986514 L6.58663245,9.88200324 L9.79352775,9.88200324 L9.79352775,4.34928204 C9.79352775,1.38550824 8.21140335,0.00636984 6.10116705,0.00636984 C4.37095845,0.00636984 3.61142955,0.97366374 3.18953295,1.63229094 L3.21071445,1.63229094 L3.21071445,0.23278914 L0.00352755,0.23278914 C0.04564755,1.13804514 0.00352755,9.88200324 0.00352755,9.88200324" id="Fill-4" fill="#111111" fill-rule="nonzero" mask="url(#mask-4)"></path>
            </g>
        </g>
    </g>
</svg>