<?xml version="1.0" encoding="UTF-8"?>
<svg width="20px" height="17px" viewBox="0 0 20 17" version="1.1" xmlns="http://www.w3.org/2000/svg" xmlns:xlink="http://www.w3.org/1999/xlink">
    <title>Shape</title>
    <g id="Symbols" stroke="none" stroke-width="1" fill="none" fill-rule="evenodd">
        <g id="/g/footer-desktop" transform="translate(-364.000000, -60.000000)" fill="#FFFFFF" fill-rule="nonzero">
            <g id="Group-2" transform="translate(198.000000, 59.000000)">
                <path d="M175.711141,5.39666425 L175.754495,6.11153995 L175.031939,6.0240041 C172.401839,5.68845025 170.104113,4.55048485 168.153214,2.63928656 L167.199442,1.69098211 L166.953773,2.39126848 C166.433533,3.95232359 166.765908,5.6009144 167.849741,6.70970121 C168.427785,7.3224518 168.297725,7.40998758 167.300599,7.04525513 C166.953773,6.92854069 166.6503,6.84100491 166.621397,6.88477284 C166.52024,6.98689788 166.867066,8.31452417 167.141637,8.83973898 C167.517366,9.56920394 168.283274,10.2840796 169.121438,10.7071693 L169.829542,11.0427233 L168.991378,11.0573125 C168.182117,11.0573125 168.153214,11.0719019 168.239921,11.3782771 C168.528943,12.3265816 169.67058,13.3332433 170.942277,13.7709223 L171.838246,14.0772976 L171.057886,14.5441552 C169.901798,15.215263 168.543394,15.5945847 167.18499,15.6237633 C166.534691,15.6383527 166,15.6967098 166,15.7404778 C166,15.8863707 167.763035,16.7033715 168.789063,17.0243361 C171.867148,17.9726406 175.523277,17.5641402 178.268986,15.9447279 C180.219885,14.7921733 182.170784,12.5016532 183.081204,10.2840796 C183.572541,9.10234639 184.063879,6.94313002 184.063879,5.90728973 C184.063879,5.23618195 184.107232,5.14864618 184.916494,4.34623463 C185.39338,3.87937707 185.841364,3.36875159 185.928071,3.22285856 C186.072582,2.94566189 186.058131,2.94566189 185.321125,3.19367996 C184.092781,3.631359 183.919368,3.57300174 184.526314,2.9164833 C184.974298,2.44962567 185.508989,1.60344634 185.508989,1.35542819 C185.508989,1.31166034 185.292222,1.38460679 185.046554,1.51591049 C184.786434,1.66180352 184.20839,1.880643 183.774857,2.01194671 L182.994497,2.25996478 L182.286393,1.77851789 C181.896213,1.51591049 181.347071,1.22412449 181.058049,1.13658871 C180.321043,0.932338491 179.193857,0.961517084 178.529106,1.1949459 C176.722718,1.85146441 175.581081,3.54382315 175.711141,5.39666425 Z" id="Shape"></path>
            </g>
        </g>
    </g>
</svg>