<?xml version="1.0" encoding="UTF-8"?>
<svg width="5px" height="6px" viewBox="0 0 5 6" version="1.1" xmlns="http://www.w3.org/2000/svg" xmlns:xlink="http://www.w3.org/1999/xlink">
    <title>Fill 3</title>
    <g id="Symbols" stroke="none" stroke-width="1" fill="none" fill-rule="evenodd">
        <g id="Group-22" transform="translate(-17.000000, -9.000000)" fill="#010202">
            <path d="M17.2578448,10.8015825 C17.2740789,10.8053299 17.2891571,10.8067872 17.3026067,10.8122002 C17.4014298,10.8519122 17.5050338,10.8575853 17.6093208,10.851652 C17.6657461,10.848373 17.7227493,10.8415027 17.7775459,10.8281787 C17.8264058,10.8163119 17.8731117,10.7947123 17.9196599,10.7748302 C17.9534415,10.7603611 17.9875909,10.7449031 18.0176949,10.7242403 C18.0656617,10.6912424 18.1132081,10.656631 18.155711,10.6171271 C18.1977935,10.5779876 18.2329411,10.5315615 18.2721867,10.4893512 C18.2786488,10.482481 18.2907324,10.4773283 18.3002942,10.4772242 C18.3950719,10.4758189 18.4899021,10.4750903 18.5846798,10.475871 C18.5965008,10.4759751 18.6111587,10.4831055 18.6194071,10.4917454 C18.6639064,10.5383276 18.7046755,10.5886053 18.7507509,10.6336261 C18.823673,10.7048788 18.913985,10.7502119 19.0069764,10.7896637 C19.0458542,10.8061627 19.0873588,10.8165201 19.1299142,10.8304167 C19.1332766,10.3569431 19.1365339,9.89106831 19.1398438,9.42102979 C19.12403,9.42331987 19.1133649,9.4236842 19.1033827,9.42649475 C18.9652091,9.46568631 18.8271405,9.50513811 18.6890719,9.54474605 C18.6785644,9.54776479 18.6687924,9.55406251 18.6581798,9.55572802 C18.6351158,9.55947542 18.6307027,9.57316384 18.6308078,9.59382659 C18.6312281,9.68324373 18.6295994,9.77271291 18.6305451,9.86213005 C18.6308078,9.88857004 18.6244507,9.89835492 18.5952399,9.89757421 C18.5234736,9.89549232 18.4516023,9.89762626 18.379731,9.8977824 C18.3412735,9.8978865 18.302816,9.89731398 18.2607335,9.89700169 C18.2612589,9.82106479 18.262152,9.75168583 18.262152,9.68230688 C18.2622045,9.56311872 18.2622571,9.44387852 18.2608911,9.32474242 C18.2606284,9.30335101 18.2715562,9.29814628 18.2883682,9.29330589 C18.3976988,9.26181732 18.5068192,9.22949599 18.6160973,9.19790332 C18.7589468,9.15662987 18.9019539,9.1157728 19.0448559,9.07470753 C19.1281805,9.05071376 19.2112948,9.02588723 19.2950396,9.00345488 C19.312377,8.99882267 19.3332344,8.99882267 19.3505192,9.00361102 C19.524471,9.05201494 19.6979499,9.10208438 19.8716914,9.15111286 C19.9773444,9.18093593 20.0833651,9.20945781 20.189018,9.23907268 C20.251275,9.2566126 20.3135845,9.27425661 20.3750009,9.29439888 C20.3835645,9.29726148 20.3919179,9.31495754 20.3922332,9.32599155 C20.3943872,9.40536358 20.3949126,9.4847356 20.3950177,9.56410762 C20.3951227,9.66841027 20.3944923,9.77271291 20.3939669,9.87701556 C20.3939669,9.88471855 20.3926535,9.89247359 20.3917603,9.90387193 C20.2706613,9.90303917 20.1506657,9.90220642 20.025889,9.90132161 C20.0263093,9.84667202 20.0266771,9.79129377 20.0269923,9.73591552 C20.0273601,9.68818821 20.0270449,9.64051295 20.0282007,9.59283769 C20.0285685,9.57654691 20.0241553,9.56806321 20.0070281,9.56322282 C19.9257525,9.5400618 19.8449498,9.51533937 19.763937,9.49139764 C19.6922758,9.47021442 19.6205095,9.44986396 19.5491111,9.42816026 C19.515382,9.41790696 19.5120721,9.41920814 19.5120196,9.45262246 C19.5118094,9.77734512 19.5115993,10.1020678 19.5113366,10.4267904 C19.5112315,10.5468634 19.5109163,10.6669884 19.5108637,10.7870613 C19.5108637,10.798824 19.5123348,10.8105867 19.5135957,10.8292716 C19.5436997,10.8226096 19.5733309,10.8212043 19.5981286,10.8096498 C19.6766722,10.7731647 19.7555835,10.7365235 19.8300817,10.6928559 C19.8957536,10.654393 19.9463998,10.5967767 19.9936835,10.5374949 C20.0077636,10.5197468 20.0195845,10.4978869 20.0378151,10.4864366 C20.0537339,10.4764955 20.0772707,10.4759751 20.0974451,10.4757148 C20.179141,10.4746218 20.2608894,10.4759751 20.3425852,10.4746739 C20.3660169,10.4743096 20.3781531,10.4821166 20.3935991,10.5007495 C20.4377832,10.554098 20.4854347,10.6051042 20.5357131,10.6528836 C20.6058507,10.7196081 20.6920648,10.7619225 20.781326,10.797731 C20.8699568,10.8332793 20.9635261,10.8479566 21.0580937,10.8558678 C21.1640619,10.8646638 21.265039,10.8368185 21.375,10.8092855 C21.3747898,10.8392647 21.3746322,10.8663293 21.3743695,10.8933938 C21.373634,10.9798443 21.3720579,11.0662947 21.3726883,11.1527452 C21.372846,11.1808507 21.3652806,11.1929256 21.3347563,11.2001082 C21.2104,11.2293587 21.0845201,11.2251949 20.9594282,11.2169715 C20.854826,11.2101012 20.75532,11.1763226 20.6551834,11.1447299 C20.5161692,11.1008541 20.3980123,11.0240844 20.2840584,10.9382585 C20.2634637,10.9227485 20.2453383,10.9040635 20.2268451,10.8861072 C20.2136056,10.8732516 20.2033082,10.872627 20.1889655,10.8860552 C20.1044852,10.9652711 20.0090245,11.0281962 19.9057883,11.0821171 C19.7884195,11.1433246 19.6636429,11.1779881 19.535031,11.2029187 C19.518219,11.2061977 19.5097079,11.2135363 19.5098655,11.2327938 C19.5108637,11.3868016 19.5108112,11.5408093 19.5111264,11.6948171 C19.5111264,11.6988247 19.5116518,11.7027803 19.5115993,11.7067359 C19.5103909,11.771899 19.5103909,11.7707019 19.5777965,11.770806 C19.8279802,11.7711703 20.0782164,11.7726277 20.3284526,11.7731481 C20.4884294,11.7734604 20.6484061,11.7723154 20.8084354,11.7726797 C20.9793925,11.773044 21.1504546,11.774085 21.3214643,11.7754382 C21.3725307,11.7758546 21.372268,11.7768435 21.3720054,11.82811 C21.3715851,11.918516 21.3715325,12.0089221 21.3711648,12.0993281 C21.3711122,12.1090089 21.3702191,12.1187417 21.369431,12.1340436 C21.3089603,12.1336272 21.2502234,12.1330547 21.1914339,12.1328465 C21.0201616,12.132274 20.8489418,12.1317015 20.6776695,12.1313892 C20.4562239,12.1309728 20.2348833,12.1306085 20.0134902,12.1306085 C19.8617618,12.1306085 19.7100335,12.131129 19.5582526,12.1315974 C19.5108112,12.1317015 19.510496,12.1319097 19.5103909,12.1793768 C19.5096554,12.5946616 19.5090249,13.0098944 19.5081843,13.4251792 C19.5078691,13.5950093 19.506976,13.7648394 19.5067133,13.9346175 C19.5066082,13.9982192 19.5074488,14.0617689 19.5081318,14.1253185 C19.5081843,14.1319285 19.5101282,14.1385385 19.5117043,14.1481152 C19.5380256,14.1369771 19.5625607,14.1272963 19.5865178,14.1163664 C19.6845528,14.0717619 19.7825353,14.0271575 19.880255,13.9818764 C20.0122818,13.9207209 20.1436782,13.8583162 20.2759151,13.7976292 C20.4155598,13.7334549 20.5560452,13.6711544 20.695795,13.6071884 C20.7909404,13.5636248 20.8851402,13.5182917 20.9802856,13.4746241 C21.0010379,13.4650994 21.0066069,13.4503701 21.0066595,13.4295512 C21.0068696,13.2944366 21.0077627,13.159322 21.0082356,13.0242074 C21.0084983,12.9210498 21.008761,12.8179442 21.0080254,12.7147866 C21.0078678,12.6907928 21.0126487,12.6794986 21.0414918,12.6801231 C21.1416283,12.6823091 21.2418174,12.6820489 21.3420064,12.6809559 C21.366594,12.6806957 21.3730036,12.6896478 21.372846,12.7120801 C21.3712173,12.9077257 21.3700089,13.1034232 21.3695361,13.2991208 C21.3691683,13.416123 21.3712173,13.5331252 21.3702191,13.6501273 C21.370114,13.6628789 21.3597641,13.6818241 21.3487838,13.687185 C21.2682438,13.7265327 21.1863378,13.7628616 21.1051148,13.800752 C21.0111777,13.8445237 20.9177134,13.8892323 20.8237763,13.932952 C20.700786,13.9902039 20.5772703,14.0463108 20.4544901,14.1039792 C20.3815155,14.1381742 20.3099069,14.1752839 20.2369323,14.2094789 C20.151086,14.2497114 20.064294,14.287862 19.9782901,14.32747 C19.8849309,14.370461 19.7923598,14.4149093 19.6987379,14.4573278 C19.6235567,14.4914187 19.5470621,14.5228553 19.4715657,14.5564778 C19.4241768,14.5776089 19.3778913,14.6012384 19.3303974,14.6221614 C19.3215711,14.6260649 19.3078062,14.6259088 19.2989799,14.6219011 C19.2209617,14.5866131 19.1435739,14.5498157 19.065871,14.513799 C18.9791841,14.4736186 18.892287,14.4338545 18.8055475,14.3937781 C18.7378792,14.3624977 18.6699482,14.3315817 18.6025951,14.2995727 C18.4873803,14.244819 18.3729536,14.1883477 18.2573711,14.1343747 C18.1743618,14.0955996 18.0895662,14.0606759 18.0063993,14.022265 C17.9360516,13.9897875 17.8671224,13.9542913 17.7971424,13.9210852 C17.716077,13.8826223 17.6343812,13.8455126 17.5532632,13.8071538 C17.4694659,13.7675979 17.3872447,13.7243467 17.3018187,13.6886423 C17.2612597,13.6716749 17.2494913,13.6491905 17.25,13.6080732 C17.2523809,13.407327 17.2521182,13.2065809 17.2528537,13.0058347 C17.2532215,12.9087146 17.2545874,12.8115944 17.2537994,12.7144223 C17.2535892,12.6891273 17.262363,12.6824132 17.2871082,12.6828816 C17.38425,12.6845992 17.481497,12.6842869 17.5786389,12.6847033 C17.6250295,12.6849115 17.6256599,12.6849115 17.6256599,12.7298282 C17.6257125,12.864006 17.6253447,12.9981317 17.6248719,13.1323095 C17.6245567,13.2306787 17.624294,13.3291 17.6227178,13.4274693 C17.6223501,13.4520876 17.628602,13.4677018 17.6534523,13.4781633 C17.7039408,13.4993986 17.7528533,13.5242251 17.8025538,13.5473341 C17.8875595,13.5867338 17.9725126,13.6261856 18.0577285,13.665169 C18.106746,13.6875493 18.1564465,13.7086284 18.205464,13.7309567 C18.272607,13.7615084 18.3393296,13.792997 18.40642,13.8236528 C18.4689922,13.8522788 18.5319321,13.8799679 18.5944518,13.908698 C18.7056212,13.9597563 18.8164754,14.0115433 18.9277498,14.0624975 C18.9903745,14.0911755 19.0534721,14.1188126 19.1164646,14.1467099 C19.1189339,14.1477509 19.1222437,14.1468661 19.1285482,14.1469181 C19.1302294,14.1200618 19.1332766,14.0937259 19.1333291,14.06739 C19.1335918,13.9034412 19.1332766,13.7395445 19.1329088,13.5755957 C19.1326987,13.4614041 19.1314903,13.3472125 19.1317005,13.2330208 C19.1320157,13.0404461 19.1330664,12.8478714 19.1338545,12.6552966 C19.13459,12.490411 19.1351679,12.3255774 19.1362712,12.1606918 C19.1364288,12.1390402 19.1306497,12.1281623 19.1056944,12.1281623 C18.9317952,12.1282664 18.757896,12.1269131 18.5839968,12.1266009 C18.4772406,12.1263927 18.3704318,12.12785 18.2636756,12.1275377 C18.079479,12.1269131 17.8952825,12.1252997 17.7110859,12.1244149 C17.5714938,12.1237903 17.4319016,12.1230617 17.2923094,12.1238944 C17.2637815,12.1240506 17.2530113,12.1154628 17.2531689,12.0865245 C17.2537468,11.9932038 17.2525385,11.8998311 17.251225,11.8065104 C17.2509098,11.7847026 17.2566364,11.7741891 17.2815392,11.7742932 C17.4524963,11.7750739 17.6234008,11.7748136 17.7943054,11.7744493 C17.9171906,11.774137 18.0400234,11.7727838 18.1629086,11.7724715 C18.3594515,11.7720031 18.5559943,11.7721592 18.7524847,11.7717949 C18.8703788,11.7715867 18.9882205,11.7706499 19.1060622,11.770754 C19.126867,11.770754 19.1341172,11.763103 19.1339596,11.7424923 C19.1330139,11.6074298 19.1329088,11.4723672 19.1327512,11.3373046 C19.1327512,11.3036301 19.1328038,11.2699555 19.1346426,11.2363851 C19.1359035,11.2144732 19.1277076,11.204376 19.1057469,11.2005245 C18.9810229,11.1786647 18.8647573,11.1330713 18.7506984,11.0791504 C18.6420508,11.0278318 18.5501627,10.9544973 18.4605862,10.8772071 C18.4479772,10.8663813 18.4398864,10.8672661 18.4279604,10.8783522 C18.2924136,11.0046188 18.1343282,11.0936716 17.9580123,11.1500908 C17.8163711,11.1953719 17.6707897,11.2181165 17.5214255,11.2071345 C17.4490288,11.2018257 17.3766321,11.1956841 17.3045506,11.1873566 C17.2560585,11.1817875 17.2536943,11.1768951 17.2539045,11.1294801 C17.2543248,11.029133 17.2547976,10.928786 17.255428,10.8284389 C17.255428,10.8206318 17.256794,10.8128768 17.2578448,10.8015825" id="Fill-3"></path>
        </g>
    </g>
</svg>