<?xml version="1.0" encoding="UTF-8"?>
<svg width="16px" height="14px" viewBox="0 0 16 14" version="1.1" xmlns="http://www.w3.org/2000/svg" xmlns:xlink="http://www.w3.org/1999/xlink">
    <title>Shape</title>
    <g id="Symbols" stroke="none" stroke-width="1" fill="none" fill-rule="evenodd">
        <g id="/g/footer-desktop" transform="translate(-410.000000, -61.000000)" fill="#FFFFFF" fill-rule="nonzero">
            <g id="Group-2" transform="translate(198.000000, 59.000000)">
                <path d="M219.999667,7.72387333 C218.699347,7.72387333 212,3.92484707 212,3.92484707 L212,3.33161333 C212,2.59656277 212.596563,2 213.332945,2 L226.666389,2 C227.403437,2 228,2.59656277 228,3.33161333 L227.989347,3.99742 C227.989347,3.99742 221.362573,7.72387333 219.999667,7.72387333 Z M219.999667,9.55484166 C221.425159,9.55484166 227.989347,5.99484 227.989347,5.99484 L228,13.98452 C228,14.7195706 227.403437,15.3161333 226.666389,15.3161333 L213.332945,15.3161333 C212.597229,15.3161333 212,14.7195706 212,13.98452 L212.010653,5.99484 C212.009987,5.99484 218.699347,9.55484166 219.999667,9.55484166 Z" id="Shape"></path>
            </g>
        </g>
    </g>
</svg>