<?xml version="1.0" encoding="UTF-8"?>
<svg width="121px" height="121px" viewBox="0 0 121 121" version="1.1" xmlns="http://www.w3.org/2000/svg" xmlns:xlink="http://www.w3.org/1999/xlink">
    <!-- Generator: Sketch 51.2 (57519) - http://www.bohemiancoding.com/sketch -->
    <title>Group 4</title>
    <desc>Created with Sketch.</desc>
    <defs>
        <polygon id="path-1" points="0 0 75 0 75 70 0 70"></polygon>
    </defs>
    <g id="Welcome" stroke="none" stroke-width="1" fill="none" fill-rule="evenodd">
        <g id="Home" transform="translate(-1020.000000, -1139.000000)">
            <g id="Group-4" transform="translate(1020.000000, 1139.000000)">
                <circle id="Oval-2" fill="#EC2D85" cx="60.5" cy="60.5" r="60.5"></circle>
                <g id="Group-3" transform="translate(24.000000, 22.000000)">
                    <mask id="mask-2" fill="white">
                        <use xlink:href="#path-1"></use>
                    </mask>
                    <g id="Clip-2"></g>
                    <path d="M1.12217742,36.2068966 L20.0729839,36.2068966 C20.6707661,36.2068966 21.2425403,35.9594828 21.6606855,35.520977 L37.5,20.123592 L37.5046371,20.123592 L53.34375,35.520977 C53.7620968,35.9594828 54.333871,36.2068966 54.9314516,36.2068966 L73.877621,36.2068966 C74.3006048,36.2068966 74.6881048,35.9616954 74.8794355,35.5704598 C75.0707661,35.1838506 75.0306452,34.7171839 74.7802419,34.3635632 L65.771371,22.6576724 C65.3508065,22.0707184 64.6844758,21.7241379 63.9758065,21.7241379 L48.1413306,21.7241379 L38.7096774,12.6913218 L38.7096774,8.48126437 C38.7096774,8.48126437 39.4657258,9.65517241 41.733871,9.65517241 C44.0020161,9.65517241 44.7580645,8.48126437 47.0262097,8.48126437 C48.3917339,8.48126437 49.4808468,8.90548851 50.1352823,9.24502874 C50.2772177,9.31804598 50.4471774,9.31341954 50.5842742,9.22974138 C50.7235887,9.14606322 50.8064516,8.99741379 50.8064516,8.83729885 L50.8064516,1.68060345 C50.8064516,1.3458908 50.6268145,1.03712644 50.333871,0.872183908 C49.7195565,0.524396552 48.5405242,0 47.0262097,0 C44.7580645,0 44.0020161,1.17390805 41.733871,1.17390805 C40.2217742,1.17390805 39.3806452,0.652931034 38.9883065,0.304137931 C38.76875,0.10841954 38.4828629,0 38.1850806,0 L37.5,0 C36.83125,0 36.2903226,0.539885057 36.2903226,1.20689655 L36.2903226,12.6935345 L26.8633065,21.7241379 L11.0217742,21.7241379 C10.3129032,21.7241379 9.64657258,22.0707184 9.22842742,22.6576724 L0.219556452,34.3635632 C-0.0308467742,34.7171839 -0.0709677419,35.1838506 0.120362903,35.5704598 C0.311693548,35.9616954 0.699193548,36.2068966 1.12217742,36.2068966 Z M60.483871,50.6896552 L65.3225806,50.6896552 L65.3225806,45.862069 L60.483871,45.862069 L60.483871,50.6896552 Z M60.483871,60.3448276 L65.3225806,60.3448276 L65.3225806,55.5172414 L60.483871,55.5172414 L60.483871,60.3448276 Z M48.3870968,50.6896552 L53.2258065,50.6896552 L53.2258065,45.862069 L48.3870968,45.862069 L48.3870968,50.6896552 Z M48.3870968,60.3448276 L53.2258065,60.3448276 L53.2258065,55.5172414 L48.3870968,55.5172414 L48.3870968,60.3448276 Z M43.5483871,39.8275862 C43.5483871,36.4945402 40.8407258,33.7931034 37.5,33.7931034 C34.1590726,33.7931034 31.4516129,36.4945402 31.4516129,39.8275862 C31.4516129,43.1606322 34.1590726,45.862069 37.5,45.862069 C40.8407258,45.862069 43.5483871,43.1606322 43.5483871,39.8275862 Z M41.1290323,56.7241379 C41.1290323,54.7253161 39.5034274,53.1034483 37.5,53.1034483 C35.496371,53.1034483 33.8709677,54.7253161 33.8709677,56.7241379 L33.8709677,65.1724138 L41.1290323,65.1724138 L41.1290323,56.7241379 Z M21.7741935,50.6896552 L26.6129032,50.6896552 L26.6129032,45.862069 L21.7741935,45.862069 L21.7741935,50.6896552 Z M21.7741935,60.3448276 L26.6129032,60.3448276 L26.6129032,55.5172414 L21.7741935,55.5172414 L21.7741935,60.3448276 Z M9.67741935,50.6896552 L14.516129,50.6896552 L14.516129,45.862069 L9.67741935,45.862069 L9.67741935,50.6896552 Z M9.67741935,60.3448276 L14.516129,60.3448276 L14.516129,55.5172414 L9.67741935,55.5172414 L9.67741935,60.3448276 Z M75,66.6810345 L75,68.4913793 C75,69.3257471 74.3241935,70 73.4879032,70 L72.5806452,70 L2.41935484,70 L1.51209677,70 C0.675604839,70 0,69.3257471 0,68.4913793 L0,66.6810345 C0,65.8466667 0.675604839,65.1724138 1.51209677,65.1724138 L2.41935484,65.1724138 L2.41935484,38.6206897 L20.0729839,38.6206897 C21.3252016,38.6206897 22.5419355,38.0972989 23.35,37.2500575 L37.5046371,23.4932471 L51.5907258,37.1850862 C52.4625,38.0972989 53.6794355,38.6206897 54.9314516,38.6206897 L72.5806452,38.6206897 L72.5806452,65.1724138 L73.4879032,65.1724138 C74.3241935,65.1724138 75,65.8466667 75,66.6810345 Z M38.2135081,35.4632471 L38.7048387,40.4133333 C38.7354839,40.7257184 38.5985887,41.032069 38.3481855,41.2207471 L35.5459677,43.3493103 C35.3546371,43.4919253 35.0971774,43.4824713 34.9175403,43.3221552 L34.6457661,43.0805747 C34.4427419,42.9001437 34.4189516,42.5891667 34.5891129,42.3793678 L36.4391129,40.0856609 L36.8927419,35.4632471 C36.91875,35.2015517 37.1336694,35.0012069 37.3889113,35.0012069 L37.7173387,35.0012069 C37.9772177,35.0012069 38.1921371,35.2015517 38.2135081,35.4632471 Z" id="Fill-1" fill="#FFFFFF" mask="url(#mask-2)"></path>
                </g>
            </g>
        </g>
    </g>
</svg>