<?xml version="1.0" encoding="UTF-8"?>
<svg width="15px" height="15px" viewBox="0 0 15 15" version="1.1" xmlns="http://www.w3.org/2000/svg" xmlns:xlink="http://www.w3.org/1999/xlink">
    <title>Fill 1</title>
    <g id="Symbols" stroke="none" stroke-width="1" fill="none" fill-rule="evenodd">
        <g id="/g/desktopheaderprofile" transform="translate(-1266.000000, -32.000000)" fill="#000000">
            <path d="M1277.40587,41.9646594 C1278.64692,40.2376998 1278.93176,38.000284 1278.16245,36.0170385 C1277.39314,34.034444 1275.67398,32.5738589 1273.59243,32.1353254 C1271.51087,31.6967431 1269.34793,32.3393614 1267.84368,33.8432466 C1266.33944,35.3471318 1265.6967,37.509517 1266.13534,39.5905578 C1266.57403,41.6715986 1268.03509,43.3904222 1270.01802,44.1594424 C1272.00176,44.9285602 1274.23973,44.6437982 1275.96712,43.4030494 L1279.56122,47 L1281,45.561578 L1277.40587,41.9646594 Z M1272.31517,42.5513506 C1271.1911,42.5513506 1270.11349,42.1051366 1269.31808,41.3099672 C1268.52334,40.5154323 1268.07702,39.4373721 1268.07702,38.3136198 C1268.07702,37.1898675 1268.52334,36.1124908 1269.31808,35.3172725 C1270.11344,34.5227376 1271.19114,34.0765237 1272.31517,34.0765237 C1273.4392,34.0765237 1274.5175,34.5227376 1275.31226,35.3172725 C1276.10763,36.1124419 1276.55395,37.1898675 1276.55395,38.3136198 C1276.55268,39.4374047 1276.10573,40.514098 1275.31099,41.3086654 C1274.51626,42.1032002 1273.43923,42.5500488 1272.3152,42.5513506 L1272.31517,42.5513506 Z" id="Fill-1"></path>
        </g>
    </g>
</svg>