<?xml version="1.0" encoding="UTF-8"?>
<svg width="121px" height="121px" viewBox="0 0 121 121" version="1.1" xmlns="http://www.w3.org/2000/svg" xmlns:xlink="http://www.w3.org/1999/xlink">
    <!-- Generator: Sketch 51.2 (57519) - http://www.bohemiancoding.com/sketch -->
    <title>Group 2</title>
    <desc>Created with Sketch.</desc>
    <defs>
        <polygon id="path-1" points="1.36941892e-05 0.0453912671 57.9733494 0.0453912671 57.9733494 21 1.36941892e-05 21"></polygon>
    </defs>
    <g id="Welcome" stroke="none" stroke-width="1" fill="none" fill-rule="evenodd">
        <g id="Home" transform="translate(-842.000000, -1139.000000)">
            <g id="Group-2" transform="translate(842.000000, 1139.000000)">
                <circle id="Oval-2" fill="#2BB673" cx="60.5" cy="60.5" r="60.5"></circle>
                <g id="Group-6" transform="translate(33.000000, 26.000000)">
                    <g id="Group-3" transform="translate(0.000000, 49.000000)">
                        <mask id="mask-2" fill="white">
                            <use xlink:href="#path-1"></use>
                        </mask>
                        <g id="Clip-2"></g>
                        <path d="M0.874419747,0.046299661 C0.407262785,0.0713572881 -0.000719493671,0.489506441 1.46835443e-05,0.94332 L1.46835443e-05,8.15714034 C1.46835443e-05,8.62540475 0.438391899,9.0519539 0.921480506,9.05416068 C18.5829944,9.13396068 28.2712704,20.6715742 28.2712704,20.6715742 C28.4440957,20.8759505 28.7140527,21.0000285 28.9866527,21.0000285 C29.2592527,21.0000285 29.529283,20.8762353 29.7020349,20.6715742 C29.7020349,20.6715742 39.3903109,9.13367593 57.0518982,9.05416068 C57.5349868,9.05138441 57.9732172,8.62568949 57.9733641,8.15714034 L57.9733641,0.94332 C57.9733641,0.701357288 57.8676425,0.460818305 57.6872552,0.293743729 C57.506721,0.126384407 57.2542375,0.0351945763 57.0049843,0.046299661 C57.0049843,0.046299661 51.9314527,0.261994576 45.8360197,1.67910305 C40.0655337,3.02039797 33.3194729,5.41290305 28.9867995,9.90163525 C24.6547134,5.41176407 17.9088729,3.02011322 12.1375792,1.67910305 C6.04192608,0.262564068 0.96487038,0.046299661 0.96487038,0.046299661 L0.874566582,0.046299661 L0.874419747,0.046299661 Z" id="Fill-1" fill="#FFFFFF" mask="url(#mask-2)"></path>
                    </g>
                    <path d="M29.4930123,0 C23.3059928,0 17.3500136,3.14041917 16.6047821,10.9674878 C16.2471453,13.2225613 16.5397369,15.6951201 16.5397369,15.6951201 C15.9811664,15.7615355 14.2894724,16.5758151 14.2259883,18.9648822 C14.17083,21.8461067 14.9497363,25.2021945 18.9092385,27.0440244 C19.4969493,29.165395 20.5402733,31.0722598 21.9152161,32.5890609 L21.9152161,34.1104398 C15.6076215,36.3368835 7.88858441,38.5112993 4.67364466,45.227762 C4.43048733,45.7432448 4.20450193,46.2745684 4,46.8173004 C5.29926741,46.9637923 6.59756844,47.2120872 7.87014876,47.3894616 C15.5762511,48.6599296 23.516516,50.837252 29.474428,56 C30.1022065,55.5231748 30.6501468,54.9566088 31.3235684,54.5376247 C38.2361944,49.7493175 46.6621792,47.8016152 55,46.8627158 C54.7908148,46.3041429 54.5623763,45.757705 54.3123799,45.227762 C51.0974402,38.5112993 43.3737942,36.3368835 37.0661252,34.1104398 L37.0661252,32.5890609 C38.441068,31.0722598 39.4890753,29.1651044 40.0767861,27.0440244 C44.0362883,25.2021945 44.8151945,21.8461067 44.7600363,18.9648822 C44.6966265,16.5758151 43.0048582,15.7618262 42.4462877,15.6951201 C42.4462877,15.6951201 42.7388793,13.2225613 42.3812425,10.9674878 C41.636011,3.14070983 35.6798832,0 29.4930123,0" id="Fill-4" fill="#FFFFFF"></path>
                </g>
            </g>
        </g>
    </g>
</svg>